# This file uses centimeters as units for non-parametric coordinates.

mtllib Pillar.mtl
g default
v -4.923504 0.000000 4.923504
v 4.923504 0.000000 4.923504
v -4.328052 2.402611 4.328052
v 4.328052 2.402611 4.328052
v -4.328052 2.402611 -4.328052
v 4.328052 2.402611 -4.328052
v -4.923504 0.000000 -4.923504
v 4.923504 0.000000 -4.923504
v -2.960028 3.408410 2.960028
v 2.960028 3.408410 2.960028
v 2.960028 3.408410 -2.960028
v -2.960028 3.408410 -2.960028
v -2.357498 9.780027 2.357498
v 2.357498 9.780027 2.357498
v 2.357498 9.780027 -2.357498
v -2.357498 9.780027 -2.357498
v -2.243420 14.619776 2.243420
v 2.243420 14.619776 2.243420
v 2.243420 14.619776 -2.243420
v -2.243420 14.619776 -2.243420
v -2.629232 15.876078 2.629232
v 2.629232 15.876078 2.629232
v 2.629232 15.876078 -2.629232
v -2.629232 15.876078 -2.629232
v -2.451247 17.467545 2.451247
v 2.451247 17.467545 2.451247
v 2.451247 17.467545 -2.451247
v -2.451247 17.467545 -2.451247
v 0.000000 19.708794 0.000000
vt 0.457370 0.013666
vt 0.846781 0.010534
vt 0.036818 0.125964
vt 0.036818 0.125964
vt 0.036818 0.125964
vt 0.036818 0.125964
vt 0.457370 0.013666
vt 0.503795 0.353898
vt 0.098363 0.203242
vt 0.098363 0.203242
vt 0.098363 0.203242
vt 0.098363 0.203242
vt 0.124652 0.493354
vt 0.124652 0.493354
vt 0.124652 0.493354
vt 0.124652 0.493354
vt 0.124652 0.713843
vt 0.124652 0.713843
vt 0.124652 0.713843
vt 0.124652 0.713843
vt 0.111226 0.773906
vt 0.111226 0.773906
vt 0.111226 0.773906
vt 0.111226 0.773906
vt 0.117380 0.847079
vt 0.117380 0.847079
vt 0.117380 0.847079
vt 0.117380 0.847079
vt 0.225108 0.998805
vt 0.344738 0.847079
vt 0.225108 0.998806
vt 0.225108 0.998805
vt 0.225108 0.998805
vt 0.344738 0.847079
vt 0.344738 0.847079
vt 0.344738 0.847079
vt 0.350891 0.773906
vt 0.350891 0.773906
vt 0.350891 0.773906
vt 0.350891 0.773906
vt 0.334798 0.713843
vt 0.334798 0.713843
vt 0.334798 0.713843
vt 0.334798 0.713843
vt 0.334798 0.493354
vt 0.334798 0.493354
vt 0.334798 0.493354
vt 0.334798 0.493354
vt 0.366796 0.203242
vt 0.366796 0.203242
vt 0.366796 0.203242
vt 0.366796 0.203242
vt 0.429546 0.125964
vt 0.429546 0.125964
vt 0.429546 0.125964
vt 0.429546 0.125964
vt 0.012987 0.013666
vt 0.503606 0.010723
vt 0.457370 0.013666
vt 0.012987 0.013666
vt 0.457370 0.013666
vt 0.012987 0.013666
vt 0.012987 0.013666
vt 0.846970 0.353709
vn 0.000000 0.240558 0.970635
vn 0.000000 0.240558 0.970635
vn 0.000000 0.240558 0.970635
vn 0.000000 0.240558 0.970635
vn 0.000000 0.240558 -0.970635
vn 0.000000 0.240558 -0.970635
vn 0.000000 0.240558 -0.970635
vn 0.000000 0.240558 -0.970635
vn 0.000000 -1.000000 0.000000
vn 0.000000 -1.000000 0.000000
vn 0.000000 -1.000000 0.000000
vn 0.000000 -1.000000 0.000000
vn 0.970635 0.240558 0.000000
vn 0.970635 0.240558 0.000000
vn 0.970635 0.240558 0.000000
vn 0.970635 0.240558 0.000000
vn -0.970635 0.240558 0.000000
vn -0.970635 0.240558 0.000000
vn -0.970635 0.240558 0.000000
vn -0.970635 0.240558 0.000000
vn 0.000000 0.805679 0.592352
vn 0.000000 0.805679 0.592352
vn 0.000000 0.805679 0.592352
vn 0.000000 0.805679 0.592352
vn 0.592352 0.805679 0.000000
vn 0.592352 0.805679 0.000000
vn 0.592352 0.805680 0.000000
vn 0.592352 0.805680 0.000000
vn 0.000000 0.805679 -0.592352
vn 0.000000 0.805679 -0.592352
vn 0.000000 0.805679 -0.592352
vn 0.000000 0.805679 -0.592352
vn -0.592352 0.805679 0.000000
vn -0.592352 0.805679 0.000000
vn -0.592352 0.805680 0.000000
vn -0.592352 0.805680 0.000000
vn 0.000000 0.094145 0.995559
vn 0.000000 0.094145 0.995559
vn 0.000000 0.067489 0.997720
vn 0.000000 0.067489 0.997720
vn 0.995559 0.094145 0.000000
vn 0.995559 0.094145 0.000000
vn 0.997720 0.067489 0.000000
vn 0.997720 0.067489 0.000000
vn 0.000000 0.094145 -0.995559
vn 0.000000 0.094145 -0.995559
vn 0.000000 0.067489 -0.997720
vn 0.000000 0.067489 -0.997720
vn -0.995559 0.094145 0.000000
vn -0.995559 0.094145 0.000000
vn -0.997720 0.067489 0.000000
vn -0.997720 0.067489 0.000000
vn 0.000000 0.023565 0.999722
vn 0.000000 0.023565 0.999722
vn 0.999722 0.023565 0.000000
vn 0.999722 0.023565 0.000000
vn 0.000000 0.023565 -0.999722
vn 0.000000 0.023565 -0.999722
vn -0.999722 0.023565 0.000000
vn -0.999722 0.023565 0.000000
vn 0.000000 -0.293570 0.955938
vn 0.000000 -0.293570 0.955938
vn 0.000000 -0.293570 0.955938
vn 0.000000 -0.293570 0.955938
vn 0.955938 -0.293570 0.000000
vn 0.955938 -0.293570 0.000000
vn 0.955938 -0.293570 0.000000
vn 0.955938 -0.293570 0.000000
vn 0.000000 -0.293570 -0.955938
vn 0.000000 -0.293570 -0.955938
vn 0.000000 -0.293570 -0.955938
vn 0.000000 -0.293570 -0.955938
vn -0.955938 -0.293570 0.000000
vn -0.955938 -0.293570 0.000000
vn -0.955938 -0.293570 0.000000
vn -0.955938 -0.293570 0.000000
vn 0.000000 0.111144 0.993804
vn 0.000000 0.111144 0.993804
vn 0.000000 0.111144 0.993804
vn 0.000000 0.111144 0.993804
vn 0.993804 0.111144 0.000000
vn 0.993804 0.111144 0.000000
vn 0.993804 0.111144 0.000000
vn 0.993804 0.111144 0.000000
vn 0.000000 0.111144 -0.993804
vn 0.000000 0.111144 -0.993804
vn 0.000000 0.111144 -0.993804
vn 0.000000 0.111144 -0.993804
vn -0.993804 0.111144 0.000000
vn -0.993804 0.111144 0.000000
vn -0.993804 0.111144 0.000000
vn -0.993804 0.111144 0.000000
vn 0.000000 0.738012 0.674787
vn 0.000000 0.738012 0.674787
vn 0.000000 0.738012 0.674787
vn 0.674787 0.738012 0.000000
vn 0.674787 0.738012 0.000000
vn 0.674787 0.738012 0.000000
vn 0.000000 0.738012 -0.674787
vn 0.000000 0.738012 -0.674787
vn 0.000000 0.738012 -0.674787
vn -0.674787 0.738012 0.000000
vn -0.674787 0.738012 0.000000
vn -0.674787 0.738012 0.000000
s off
g Pillar
usemtl initialShadingGroup
f 1/63/1 2/59/2 4/55/3 3/4/4
f 5/53/5 6/6/6 8/57/7 7/61/8
f 7/8/9 8/58/10 2/2/11 1/64/12
f 2/60/13 8/7/14 6/54/15 4/3/16
f 7/62/17 1/1/18 3/56/19 5/5/20
f 3/4/21 4/55/22 10/51/23 9/10/24
f 4/3/25 6/54/26 11/50/27 10/9/28
f 6/6/29 5/53/30 12/49/31 11/11/32
f 5/5/33 3/56/34 9/52/35 12/12/36
s 1
f 9/10/37 10/51/38 14/47/39 13/14/40
s 2
f 10/9/41 11/50/42 15/46/43 14/13/44
s 3
f 11/11/45 12/49/46 16/45/47 15/15/48
s 4
f 12/12/49 9/52/50 13/48/51 16/16/52
s 1
f 13/14/40 14/47/39 18/43/53 17/18/54
s 2
f 14/13/44 15/46/43 19/42/55 18/17/56
s 3
f 15/15/48 16/45/47 20/41/57 19/19/58
s 4
f 16/16/52 13/48/51 17/44/59 20/20/60
s off
f 17/18/61 18/43/62 22/39/63 21/22/64
f 18/17/65 19/42/66 23/38/67 22/21/68
f 19/19/69 20/41/70 24/37/71 23/23/72
f 20/20/73 17/44/74 21/40/75 24/24/76
f 21/22/77 22/39/78 26/35/79 25/26/80
f 22/21/81 23/38/82 27/34/83 26/25/84
f 23/23/85 24/37/86 28/30/87 27/27/88
f 24/24/89 21/40/90 25/36/91 28/28/92
f 25/26/93 26/35/94 29/32/95
f 26/25/96 27/34/97 29/31/98
f 27/27/99 28/30/100 29/29/101
f 28/28/102 25/36/103 29/33/104
