# This file uses centimeters as units for non-parametric coordinates.

mtllib Pillar.mtl
g default
v -4.923504 0.000000 4.923504
v 4.923504 0.000000 4.923504
v -4.328052 2.402611 4.328052
v 4.328052 2.402611 4.328052
v -4.328052 2.402611 -4.328052
v 4.328052 2.402611 -4.328052
v -4.923504 0.000000 -4.923504
v 4.923504 0.000000 -4.923504
v -2.960028 3.408410 2.960028
v 2.960028 3.408410 2.960028
v 2.960028 3.408410 -2.960028
v -2.960028 3.408410 -2.960028
v -2.357498 9.780027 2.357498
v 2.357498 9.780027 2.357498
v 2.357498 9.780027 -2.357498
v -2.357498 9.780027 -2.357498
v -2.243420 14.619776 2.243420
v 2.243420 14.619776 2.243420
v 2.243420 14.619776 -2.243420
v -2.243420 14.619776 -2.243420
v -2.629232 15.876078 2.629232
v 2.629232 15.876078 2.629232
v 2.629232 15.876078 -2.629232
v -2.629232 15.876078 -2.629232
v -2.451247 17.467545 2.451247
v 2.451247 17.467545 2.451247
v 2.451247 17.467545 -2.451247
v -2.451247 17.467545 -2.451247
v 0.000000 19.708794 0.000000
vt 0.375000 0.000000
vt 0.625000 0.000000
vt 0.375000 0.250000
vt 0.625000 0.250000
vt 0.375000 0.500000
vt 0.625000 0.500000
vt 0.375000 0.750000
vt 0.625000 0.750000
vt 0.375000 1.000000
vt 0.625000 1.000000
vt 0.875000 0.000000
vt 0.875000 0.250000
vt 0.125000 0.000000
vt 0.125000 0.250000
vt 0.375000 0.250000
vt 0.625000 0.250000
vt 0.625000 0.500000
vt 0.375000 0.500000
vt 0.375000 0.250000
vt 0.625000 0.250000
vt 0.625000 0.500000
vt 0.375000 0.500000
vt 0.375000 0.250000
vt 0.625000 0.250000
vt 0.625000 0.500000
vt 0.375000 0.500000
vt 0.375000 0.250000
vt 0.625000 0.250000
vt 0.625000 0.500000
vt 0.375000 0.500000
vt 0.375000 0.250000
vt 0.625000 0.250000
vt 0.625000 0.500000
vt 0.375000 0.500000
vt 0.500000 0.375000
vn 0.000000 0.240558 0.970635
vn 0.000000 0.240558 0.970635
vn 0.000000 0.240558 0.970635
vn 0.000000 0.240558 0.970635
vn 0.000000 0.240558 -0.970635
vn 0.000000 0.240558 -0.970635
vn 0.000000 0.240558 -0.970635
vn 0.000000 0.240558 -0.970635
vn 0.000000 -1.000000 0.000000
vn 0.000000 -1.000000 0.000000
vn 0.000000 -1.000000 0.000000
vn 0.000000 -1.000000 0.000000
vn 0.970635 0.240558 0.000000
vn 0.970635 0.240558 0.000000
vn 0.970635 0.240558 0.000000
vn 0.970635 0.240558 0.000000
vn -0.970635 0.240558 0.000000
vn -0.970635 0.240558 0.000000
vn -0.970635 0.240558 0.000000
vn -0.970635 0.240558 0.000000
vn 0.000000 0.805679 0.592352
vn 0.000000 0.805679 0.592352
vn 0.000000 0.805679 0.592352
vn 0.000000 0.805679 0.592352
vn 0.592352 0.805679 0.000000
vn 0.592352 0.805679 0.000000
vn 0.592352 0.805680 0.000000
vn 0.592352 0.805680 0.000000
vn 0.000000 0.805679 -0.592352
vn 0.000000 0.805679 -0.592352
vn 0.000000 0.805679 -0.592352
vn 0.000000 0.805679 -0.592352
vn -0.592352 0.805679 0.000000
vn -0.592352 0.805679 0.000000
vn -0.592352 0.805680 0.000000
vn -0.592352 0.805680 0.000000
vn 0.000000 0.094145 0.995559
vn 0.000000 0.094145 0.995559
vn 0.000000 0.067489 0.997720
vn 0.000000 0.067489 0.997720
vn 0.995559 0.094145 0.000000
vn 0.995559 0.094145 0.000000
vn 0.997720 0.067489 0.000000
vn 0.997720 0.067489 0.000000
vn 0.000000 0.094145 -0.995559
vn 0.000000 0.094145 -0.995559
vn 0.000000 0.067489 -0.997720
vn 0.000000 0.067489 -0.997720
vn -0.995559 0.094145 0.000000
vn -0.995559 0.094145 0.000000
vn -0.997720 0.067489 0.000000
vn -0.997720 0.067489 0.000000
vn 0.000000 0.023565 0.999722
vn 0.000000 0.023565 0.999722
vn 0.999722 0.023565 0.000000
vn 0.999722 0.023565 0.000000
vn 0.000000 0.023565 -0.999722
vn 0.000000 0.023565 -0.999722
vn -0.999722 0.023565 0.000000
vn -0.999722 0.023565 0.000000
vn 0.000000 -0.293570 0.955938
vn 0.000000 -0.293570 0.955938
vn 0.000000 -0.293570 0.955938
vn 0.000000 -0.293570 0.955938
vn 0.955938 -0.293570 0.000000
vn 0.955938 -0.293570 0.000000
vn 0.955938 -0.293570 0.000000
vn 0.955938 -0.293570 0.000000
vn 0.000000 -0.293570 -0.955938
vn 0.000000 -0.293570 -0.955938
vn 0.000000 -0.293570 -0.955938
vn 0.000000 -0.293570 -0.955938
vn -0.955938 -0.293570 0.000000
vn -0.955938 -0.293570 0.000000
vn -0.955938 -0.293570 0.000000
vn -0.955938 -0.293570 0.000000
vn 0.000000 0.111144 0.993804
vn 0.000000 0.111144 0.993804
vn 0.000000 0.111144 0.993804
vn 0.000000 0.111144 0.993804
vn 0.993804 0.111144 0.000000
vn 0.993804 0.111144 0.000000
vn 0.993804 0.111144 0.000000
vn 0.993804 0.111144 0.000000
vn 0.000000 0.111144 -0.993804
vn 0.000000 0.111144 -0.993804
vn 0.000000 0.111144 -0.993804
vn 0.000000 0.111144 -0.993804
vn -0.993804 0.111144 0.000000
vn -0.993804 0.111144 0.000000
vn -0.993804 0.111144 0.000000
vn -0.993804 0.111144 0.000000
vn 0.000000 0.738012 0.674787
vn 0.000000 0.738012 0.674787
vn 0.000000 0.738012 0.674787
vn 0.674787 0.738012 0.000000
vn 0.674787 0.738012 0.000000
vn 0.674787 0.738012 0.000000
vn 0.000000 0.738012 -0.674787
vn 0.000000 0.738012 -0.674787
vn 0.000000 0.738012 -0.674787
vn -0.674787 0.738012 0.000000
vn -0.674787 0.738012 0.000000
vn -0.674787 0.738012 0.000000
s off
g Pillar
usemtl initialShadingGroup
f 1/1/1 2/2/2 4/4/3 3/3/4
f 5/5/5 6/6/6 8/8/7 7/7/8
f 7/7/9 8/8/10 2/10/11 1/9/12
f 2/2/13 8/11/14 6/12/15 4/4/16
f 7/13/17 1/1/18 3/3/19 5/14/20
f 3/3/21 4/4/22 10/16/23 9/15/24
f 4/4/25 6/6/26 11/17/27 10/16/28
f 6/6/29 5/5/30 12/18/31 11/17/32
f 5/5/33 3/3/34 9/15/35 12/18/36
s 1
f 9/15/37 10/16/38 14/20/39 13/19/40
s 2
f 10/16/41 11/17/42 15/21/43 14/20/44
s 3
f 11/17/45 12/18/46 16/22/47 15/21/48
s 4
f 12/18/49 9/15/50 13/19/51 16/22/52
s 1
f 13/19/40 14/20/39 18/24/53 17/23/54
s 2
f 14/20/44 15/21/43 19/25/55 18/24/56
s 3
f 15/21/48 16/22/47 20/26/57 19/25/58
s 4
f 16/22/52 13/19/51 17/23/59 20/26/60
s off
f 17/23/61 18/24/62 22/28/63 21/27/64
f 18/24/65 19/25/66 23/29/67 22/28/68
f 19/25/69 20/26/70 24/30/71 23/29/72
f 20/26/73 17/23/74 21/27/75 24/30/76
f 21/27/77 22/28/78 26/32/79 25/31/80
f 22/28/81 23/29/82 27/33/83 26/32/84
f 23/29/85 24/30/86 28/34/87 27/33/88
f 24/30/89 21/27/90 25/31/91 28/34/92
f 25/31/93 26/32/94 29/35/95
f 26/32/96 27/33/97 29/35/98
f 27/33/99 28/34/100 29/35/101
f 28/34/102 25/31/103 29/35/104
