# This file uses centimeters as units for non-parametric coordinates.

mtllib Wall.mtl
g default
v 1.956049 6.806567 1.141529
v 1.642781 0.000000 1.141529
v 1.642781 0.000000 0.750000
v 1.956049 6.806567 0.750000
v 2.357937 9.179327 1.141529
v 2.357937 9.179327 0.750000
v 13.357220 0.000000 0.750000
v 13.043951 6.806567 0.750000
v 3.765887 11.445095 1.141529
v 3.765887 11.445095 0.750000
v 12.642063 9.179327 0.750000
v 15.000000 0.000000 1.141529
v 13.357220 0.000000 1.141529
v 13.043951 6.806567 1.141529
v 11.234113 11.445095 0.750000
v 7.000000 13.611527 1.141529
v 7.000000 13.611527 0.750000
v 12.642063 9.179327 1.141529
v 7.500000 14.636386 1.141529
v 7.500000 14.636386 0.750000
v 8.000000 13.611527 1.141529
v 8.000000 13.611527 0.750000
v 11.234113 11.445095 1.141529
v -1.956049 6.806567 1.141529
v -1.642781 0.000000 1.141529
v -1.642781 0.000000 0.750000
v -1.956049 6.806567 0.750000
v -2.357937 9.179327 1.141529
v -2.357937 9.179327 0.750000
v -13.357220 0.000000 0.750000
v -13.043951 6.806567 0.750000
v -3.765887 11.445095 1.141529
v -3.765887 11.445095 0.750000
v -12.642063 9.179327 0.750000
v -15.000000 0.000000 1.141529
v -13.357220 0.000000 1.141529
v -13.043951 6.806567 1.141529
v -11.234113 11.445095 0.750000
v -7.000000 13.611527 1.141529
v -7.000000 13.611527 0.750000
v -12.642063 9.179327 1.141529
v -7.500000 14.636386 1.141529
v -7.500000 14.636386 0.750000
v -8.000000 13.611527 1.141529
v -8.000000 13.611527 0.750000
v -11.234113 11.445095 1.141529
v -7.985309 13.641642 1.141529
v 1.956049 6.806567 -1.141529
v 1.642781 0.000000 -1.141529
v 1.642781 -0.000000 -0.750000
v 1.956049 6.806567 -0.750000
v 2.357937 9.179327 -1.141529
v 2.357937 9.179327 -0.750000
v 13.357220 0.000000 -0.750000
v 13.043951 6.806567 -0.750000
v 3.765887 11.445095 -1.141529
v 3.765887 11.445095 -0.750000
v 12.642063 9.179327 -0.750000
v 15.000000 0.000000 -1.141529
v 13.357220 0.000000 -1.141529
v 13.043951 6.806567 -1.141529
v 11.234113 11.445095 -0.750000
v 7.000000 13.611527 -1.141529
v 7.000000 13.611527 -0.750000
v 12.642063 9.179327 -1.141529
v 7.500000 14.636386 -1.141529
v 7.500000 14.636386 -0.750000
v 8.000000 13.611527 -1.141529
v 8.000000 13.611527 -0.750000
v 11.234113 11.445095 -1.141529
v -1.956049 6.806567 -1.141529
v -1.642781 0.000000 -1.141529
v -1.642781 -0.000000 -0.750000
v -1.956049 6.806567 -0.750000
v -2.357937 9.179327 -1.141529
v -2.357937 9.179327 -0.750000
v -13.357220 0.000000 -0.750000
v -13.043951 6.806567 -0.750000
v -3.765887 11.445095 -1.141529
v -3.765887 11.445095 -0.750000
v -12.642063 9.179327 -0.750000
v -15.000000 0.000000 -1.141529
v -13.357220 0.000000 -1.141529
v -13.043951 6.806567 -1.141529
v -11.234113 11.445095 -0.750000
v -7.000000 13.611527 -1.141529
v -7.000000 13.611527 -0.750000
v -12.642063 9.179327 -1.141529
v -7.500000 14.636386 -1.141529
v -7.500000 14.636386 -0.750000
v -8.000000 13.611527 -1.141529
v -8.000000 13.611527 -0.750000
v -11.234113 11.445095 -1.141529
v -7.985309 13.641642 -1.141529
v -12.000300 16.907635 1.141529
v -15.000000 18.505285 1.141529
v -12.000300 16.907635 -1.141529
v -15.000000 18.505285 -1.141529
v 15.000000 18.505285 1.141529
v 12.000300 16.907635 1.141529
v 15.000000 18.505285 -1.141529
v 12.000300 16.907635 -1.141529
v 0.000000 18.505285 1.141529
v -2.999700 16.907635 1.141529
v -2.935322 16.018723 1.141529
v 2.935322 16.018723 1.141529
v 2.999700 16.907635 1.141529
v 0.000000 18.505285 -1.141529
v 2.999700 16.907635 -1.141529
v 2.935322 16.018723 -1.141529
v -2.935322 16.018723 -1.141529
v -2.999700 16.907635 -1.141529
vt 0.222882 0.125015
vt 0.222882 0.000000
vt 0.125000 0.000000
vt 0.125000 0.125015
vt 0.222882 0.168595
vt 0.125000 0.168595
vt 0.375000 0.624985
vt 0.375000 0.750000
vt 0.625000 0.750000
vt 0.625000 0.624985
vt 0.222882 0.210210
vt 0.125000 0.210210
vt 0.375000 0.581405
vt 0.625000 0.581405
vt 0.625000 1.000000
vt 0.611310 1.000000
vt 0.611310 0.957127
vt 0.513690 0.957127
vt 0.513690 1.000000
vt 0.777118 0.000000
vt 0.777118 0.125015
vt 0.875000 0.125015
vt 0.875000 0.000000
vt 0.375000 0.539790
vt 0.625000 0.539790
vt 0.222882 0.250000
vt 0.125000 0.250000
vt 0.777118 0.168595
vt 0.875000 0.168595
vt 0.500000 0.402134
vt 0.375000 0.402118
vt 0.375000 0.500000
vt 0.500000 0.500000
vt 0.625000 0.402118
vt 0.625000 0.500000
vt 0.777118 0.210210
vt 0.777118 0.250000
vt 0.875000 0.250000
vt 0.875000 0.210210
vt 0.513690 0.000000
vt 0.516300 0.100643
vt 0.519650 0.135728
vt 0.531382 0.169230
vt 0.558333 0.201263
vt 0.611310 0.000000
vt 0.222882 0.125015
vt 0.222882 0.000000
vt 0.125000 0.000000
vt 0.125000 0.125015
vt 0.222882 0.168595
vt 0.125000 0.168595
vt 0.375000 0.624985
vt 0.375000 0.750000
vt 0.625000 0.750000
vt 0.625000 0.624985
vt 0.222882 0.210210
vt 0.125000 0.210210
vt 0.375000 0.581405
vt 0.625000 0.581405
vt 0.625000 1.000000
vt 0.611310 1.000000
vt 0.611310 0.957127
vt 0.513690 0.957127
vt 0.513690 1.000000
vt 0.777118 0.000000
vt 0.777118 0.125015
vt 0.875000 0.125015
vt 0.875000 0.000000
vt 0.375000 0.539790
vt 0.625000 0.539790
vt 0.222882 0.250000
vt 0.125000 0.250000
vt 0.777118 0.168595
vt 0.875000 0.168595
vt 0.500000 0.402134
vt 0.375000 0.402118
vt 0.375000 0.500000
vt 0.500000 0.500000
vt 0.625000 0.402118
vt 0.625000 0.500000
vt 0.777118 0.210210
vt 0.777118 0.250000
vt 0.875000 0.250000
vt 0.875000 0.210210
vt 0.513690 0.000000
vt 0.516300 0.100643
vt 0.519650 0.135728
vt 0.531382 0.169230
vt 0.558333 0.201263
vt 0.608700 0.100643
vt 0.611310 0.000000
vt 0.621327 0.402118
vt 0.222882 0.125015
vt 0.222882 0.000000
vt 0.125000 0.000000
vt 0.125000 0.125015
vt 0.222882 0.168595
vt 0.125000 0.168595
vt 0.375000 0.624985
vt 0.375000 0.750000
vt 0.625000 0.750000
vt 0.625000 0.624985
vt 0.222882 0.210210
vt 0.125000 0.210210
vt 0.375000 0.581405
vt 0.625000 0.581405
vt 0.777118 0.000000
vt 0.777118 0.125015
vt 0.875000 0.125015
vt 0.875000 0.000000
vt 0.375000 0.539790
vt 0.625000 0.539790
vt 0.222882 0.250000
vt 0.125000 0.250000
vt 0.777118 0.168595
vt 0.875000 0.168595
vt 0.500000 0.402134
vt 0.375000 0.402118
vt 0.375000 0.500000
vt 0.500000 0.500000
vt 0.625000 0.402118
vt 0.625000 0.500000
vt 0.777118 0.210210
vt 0.777118 0.250000
vt 0.875000 0.250000
vt 0.875000 0.210210
vt 0.608700 0.100643
vt 0.611310 0.000000
vt 0.222882 0.125015
vt 0.125000 0.125015
vt 0.125000 0.000000
vt 0.222882 0.000000
vt 0.222882 0.168595
vt 0.125000 0.168595
vt 0.375000 0.624985
vt 0.625000 0.624985
vt 0.625000 0.750000
vt 0.375000 0.750000
vt 0.222882 0.210210
vt 0.125000 0.210210
vt 0.375000 0.581405
vt 0.625000 0.581405
vt 0.777118 0.000000
vt 0.875000 0.000000
vt 0.875000 0.125015
vt 0.777118 0.125015
vt 0.375000 0.539790
vt 0.625000 0.539790
vt 0.222882 0.250000
vt 0.125000 0.250000
vt 0.875000 0.168595
vt 0.777118 0.168595
vt 0.500000 0.402134
vt 0.500000 0.500000
vt 0.375000 0.500000
vt 0.375000 0.402118
vt 0.625000 0.402118
vt 0.625000 0.500000
vt 0.621327 0.402118
vt 0.777134 0.210209
vt 0.875000 0.210210
vt 0.875000 0.250000
vt 0.777118 0.250000
vt 0.519650 0.135728
vt 0.519650 0.135728
vt 0.531382 0.169230
vt 0.531382 0.169230
vt 0.558333 0.201263
vt 0.558333 0.201263
vt 0.516300 0.100643
vt 0.516300 0.100643
vt 0.513690 0.000000
vt 0.513690 0.000000
vt 0.608700 0.100643
vt 0.611310 0.000000
vt 0.625000 1.000000
vt 0.625000 1.000000
vt 0.611310 1.000000
vt 0.611310 0.957127
vt 0.513690 0.957127
vt 0.513690 1.000000
vt 0.513690 1.000000
vt 0.513690 0.957127
vt 0.611310 0.957127
vt 0.611310 1.000000
vt 0.605351 0.135728
vt 0.593618 0.169230
vt 0.566544 0.201708
vt 0.566667 0.201263
vt 0.566544 0.201708
vt 0.566667 0.201263
vt 0.593621 0.169213
vt 0.605351 0.135728
vt 0.625000 0.000000
vt 0.566667 0.201263
vt 0.593618 0.169230
vt 0.605351 0.135728
vt 0.608700 0.100643
vt 0.625000 0.000000
vt 0.605351 0.135728
vt 0.593618 0.169230
vt 0.566667 0.201263
vt 0.571899 0.216432
vt 0.571973 0.216417
vt 0.571976 0.216429
vt 0.571894 0.216417
vt 0.625000 0.000000
vt 0.625000 0.000000
vt 0.625000 0.250000
vt 0.625000 0.250000
vt 0.625000 0.250000
vt 0.625000 0.250000
vt 0.625000 0.250000
vt 0.625000 0.250000
vt 0.625000 0.250000
vt 0.600539 0.236856
vt 0.600539 0.236856
vt 0.625000 0.250000
vt 0.600539 0.236856
vt 0.600539 0.236856
vt 0.623426 0.244754
vt 0.624999 0.249993
vt 0.624999 0.249993
vt 0.623431 0.244771
vt 0.624972 0.249985
vt 0.624972 0.249985
vn 0.996979 -0.077674 0.000000
vn 0.998943 -0.045976 0.000000
vn 0.998943 -0.045976 0.000000
vn 0.996979 -0.077674 0.000000
vn 0.931599 -0.363487 0.000000
vn 0.931599 -0.363487 0.000000
vn 0.000000 0.000000 1.000000
vn 0.000000 0.000000 1.000000
vn 0.000000 0.000000 1.000000
vn 0.000000 0.000000 1.000000
vn 0.690569 -0.723267 0.000000
vn 0.690569 -0.723267 0.000000
vn 0.000000 0.000000 1.000000
vn 0.000000 0.000000 1.000000
vn -0.998943 -0.045976 0.000000
vn -0.996979 -0.077674 0.000000
vn -0.996979 -0.077674 0.000000
vn -0.998943 -0.045976 0.000000
vn 0.000000 0.000000 1.000000
vn 0.000000 0.000000 1.000000
vn 0.556541 -0.830820 0.000000
vn 0.556541 -0.830820 0.000000
vn -0.931599 -0.363487 0.000000
vn -0.931599 -0.363487 0.000000
vn 0.898745 -0.438473 0.000000
vn 0.898745 -0.438473 0.000000
vn 0.898745 -0.438473 0.000000
vn 0.898745 -0.438473 0.000000
vn -0.898745 -0.438472 0.000000
vn -0.898745 -0.438472 0.000000
vn -0.898745 -0.438472 0.000000
vn -0.898745 -0.438472 0.000000
vn -0.690569 -0.723267 0.000000
vn -0.556541 -0.830820 0.000000
vn -0.556541 -0.830820 0.000000
vn -0.690569 -0.723267 0.000000
vn 0.000000 0.000000 1.000000
vn 0.000000 0.000000 1.000000
vn 0.000000 0.000000 1.000000
vn 0.000000 0.000000 1.000000
vn 0.000000 0.000000 1.000000
vn 0.000000 0.000000 1.000000
vn -0.996979 -0.077674 0.000000
vn -0.996979 -0.077674 0.000000
vn -0.998943 -0.045976 0.000000
vn -0.998943 -0.045976 0.000000
vn -0.931599 -0.363487 0.000000
vn -0.931599 -0.363487 0.000000
vn 0.000000 0.000000 1.000000
vn 0.000000 0.000000 1.000000
vn 0.000000 0.000000 1.000000
vn 0.000000 0.000000 1.000000
vn -0.690569 -0.723267 0.000000
vn -0.690569 -0.723267 0.000000
vn 0.000000 0.000000 1.000000
vn 0.000000 0.000000 1.000000
vn 0.998943 -0.045976 0.000000
vn 0.998943 -0.045976 0.000000
vn 0.996979 -0.077674 0.000000
vn 0.996979 -0.077674 0.000000
vn 0.000000 0.000000 1.000000
vn 0.000000 0.000000 1.000000
vn -0.556541 -0.830820 0.000000
vn -0.556541 -0.830820 0.000000
vn 0.931599 -0.363487 0.000000
vn 0.931599 -0.363487 0.000000
vn -0.898745 -0.438473 0.000000
vn -0.898745 -0.438473 0.000000
vn -0.898745 -0.438473 0.000000
vn -0.898745 -0.438473 0.000000
vn 0.898751 -0.438460 0.000000
vn 0.898745 -0.438473 0.000000
vn 0.898745 -0.438472 0.000000
vn 0.690569 -0.723267 0.000000
vn 0.690569 -0.723267 0.000000
vn 0.556541 -0.830820 0.000000
vn 0.556541 -0.830820 0.000000
vn 0.000000 0.000000 1.000000
vn 0.000000 0.000000 1.000000
vn 0.000000 0.000000 1.000000
vn 0.000000 0.000000 1.000000
vn 0.000000 0.000000 1.000000
vn 0.000000 0.000000 1.000000
vn 0.000000 0.000000 1.000000
vn 0.000000 0.000000 1.000000
vn 0.000000 0.000000 1.000000
vn -0.000000 0.000000 1.000000
vn 0.000000 0.000000 1.000000
vn 0.000000 0.000000 1.000000
vn 0.000000 0.000000 1.000000
vn 0.000000 0.000000 1.000000
vn 0.000000 0.000000 1.000000
vn 0.000000 0.000000 1.000000
vn 0.000000 0.000000 1.000000
vn 0.000000 0.000000 1.000000
vn 0.898745 -0.438473 0.000000
vn 0.898745 -0.438473 0.000000
vn 0.000000 0.000000 1.000000
vn 0.000000 0.000000 1.000000
vn 0.000000 0.000000 1.000000
vn 0.000000 0.000000 1.000000
vn 0.000000 0.000000 1.000000
vn 0.000000 0.000000 1.000000
vn 0.000000 0.000000 1.000000
vn 0.000000 0.000000 1.000000
vn 0.996979 -0.077674 0.000000
vn 0.996979 -0.077674 0.000000
vn 0.998943 -0.045976 0.000000
vn 0.998943 -0.045976 0.000000
vn 0.931599 -0.363487 0.000000
vn 0.931599 -0.363487 0.000000
vn 0.000000 0.000000 -1.000000
vn 0.000000 0.000000 -1.000000
vn 0.000000 0.000000 -1.000000
vn 0.000000 0.000000 -1.000000
vn 0.690569 -0.723267 0.000000
vn 0.690569 -0.723267 0.000000
vn 0.000000 0.000000 -1.000000
vn 0.000000 0.000000 -1.000000
vn -0.998943 -0.045976 0.000000
vn -0.998943 -0.045976 0.000000
vn -0.996979 -0.077674 0.000000
vn -0.996979 -0.077674 0.000000
vn 0.000000 0.000000 -1.000000
vn 0.000000 0.000000 -1.000000
vn 0.556541 -0.830820 0.000000
vn 0.556541 -0.830820 0.000000
vn -0.931599 -0.363487 0.000000
vn -0.931599 -0.363487 0.000000
vn 0.898745 -0.438473 0.000000
vn 0.898745 -0.438473 0.000000
vn 0.898745 -0.438473 0.000000
vn 0.898745 -0.438473 0.000000
vn -0.898745 -0.438472 0.000000
vn -0.898745 -0.438472 0.000000
vn -0.898745 -0.438472 0.000000
vn -0.898745 -0.438472 0.000000
vn -0.690569 -0.723267 0.000000
vn -0.690569 -0.723267 0.000000
vn -0.556541 -0.830820 0.000000
vn -0.556541 -0.830820 0.000000
vn 0.000000 0.000000 -1.000000
vn 0.000000 0.000000 -1.000000
vn 0.000000 0.000000 -1.000000
vn -0.000000 0.000000 -1.000000
vn 0.000000 0.000000 -1.000000
vn -0.000000 0.000000 -1.000000
vn -0.996979 -0.077674 0.000000
vn -0.998943 -0.045976 0.000000
vn -0.998943 -0.045976 0.000000
vn -0.996979 -0.077674 0.000000
vn -0.931599 -0.363487 0.000000
vn -0.931599 -0.363487 0.000000
vn 0.000000 0.000000 -1.000000
vn 0.000000 0.000000 -1.000000
vn 0.000000 0.000000 -1.000000
vn 0.000000 0.000000 -1.000000
vn -0.690569 -0.723267 0.000000
vn -0.690569 -0.723267 0.000000
vn 0.000000 0.000000 -1.000000
vn 0.000000 0.000000 -1.000000
vn 0.998943 -0.045976 0.000000
vn 0.996979 -0.077674 0.000000
vn 0.996979 -0.077674 0.000000
vn 0.998943 -0.045976 0.000000
vn 0.000000 0.000000 -1.000000
vn 0.000000 0.000000 -1.000000
vn -0.556541 -0.830820 0.000000
vn -0.556541 -0.830820 0.000000
vn 0.931599 -0.363487 0.000000
vn 0.931599 -0.363487 0.000000
vn -0.898745 -0.438473 0.000000
vn -0.898745 -0.438473 0.000000
vn -0.898745 -0.438473 0.000000
vn -0.898745 -0.438473 0.000000
vn 0.898751 -0.438460 0.000000
vn 0.898745 -0.438472 -0.000000
vn 0.898745 -0.438473 -0.000000
vn 0.690569 -0.723267 0.000000
vn 0.556541 -0.830820 0.000000
vn 0.556541 -0.830820 0.000000
vn 0.690569 -0.723267 0.000000
vn 0.000000 0.000000 -1.000000
vn 0.000000 0.000000 -1.000000
vn 0.000000 0.000000 -1.000000
vn 0.000000 0.000000 -1.000000
vn 0.000000 0.000000 -1.000000
vn 0.000000 0.000000 -1.000000
vn 0.000000 0.000000 -1.000000
vn 0.000000 0.000000 -1.000000
vn 0.000000 0.000000 -1.000000
vn -0.000000 0.000000 -1.000000
vn 0.000000 0.000000 -1.000000
vn 0.000000 0.000000 -1.000000
vn 0.000000 0.000000 -1.000000
vn 0.000000 0.000000 -1.000000
vn 0.000000 0.000000 -1.000000
vn 0.000000 0.000000 -1.000000
vn 0.000000 0.000000 -1.000000
vn 0.898745 -0.438473 -0.000000
vn 0.898745 -0.438473 -0.000000
vn -0.000000 0.000000 -1.000000
vn -0.000000 0.000000 -1.000000
vn -0.000000 0.000000 -1.000000
vn -0.000000 0.000000 -1.000000
vn -0.000000 0.000000 -1.000000
vn 0.000000 0.000000 -1.000000
vn 0.000000 0.000000 -1.000000
vn 0.000000 0.000000 -1.000000
vn -0.000000 -1.000000 -0.000000
vn -0.000000 -1.000000 -0.000000
vn -0.000000 -1.000000 -0.000000
vn -0.000000 -1.000000 -0.000000
vn -0.000000 -1.000000 -0.000000
vn -0.000000 -1.000000 -0.000000
vn -0.000000 -1.000000 -0.000000
vn -0.000000 -1.000000 -0.000000
vn -0.000000 -1.000000 -0.000000
vn -0.000000 -1.000000 -0.000000
vn -0.000000 -1.000000 -0.000000
vn -0.000000 -1.000000 -0.000000
vn -0.000000 -1.000000 -0.000000
vn -0.000000 -1.000000 -0.000000
vn -0.000000 -1.000000 -0.000000
vn -0.000000 -1.000000 -0.000000
vn -0.000000 -1.000000 -0.000000
vn -0.000000 -1.000000 -0.000000
vn -0.000000 -1.000000 -0.000000
vn -0.000000 -1.000000 -0.000000
vn -1.000000 0.000000 0.000000
vn -1.000000 0.000000 0.000000
vn -1.000000 0.000000 0.000000
vn -1.000000 0.000000 0.000000
vn -0.131970 0.991254 0.000000
vn -0.131970 0.991254 0.000000
vn 0.131970 0.991254 0.000000
vn 0.131970 0.991254 0.000000
vn 1.000000 0.000000 0.000000
vn 1.000000 0.000000 0.000000
vn 1.000000 0.000000 0.000000
vn 1.000000 0.000000 0.000000
vn 0.000000 0.000000 1.000000
vn 0.000000 0.000000 -1.000000
vn 0.000000 0.000000 -1.000000
vn 0.000000 0.000000 -1.000000
vn 0.000000 0.000000 -1.000000
vn -0.131970 0.991254 0.000000
vn -0.131970 0.991254 0.000000
vn 0.131970 0.991254 0.000000
vn 0.131970 0.991254 0.000000
vn 0.000000 0.000000 1.000000
vn 0.000000 0.000000 1.000000
vn 0.470087 0.882620 0.000000
vn 0.470087 0.882620 0.000000
vn -0.470087 0.882620 0.000000
vn -0.470087 0.882620 0.000000
vn 0.000000 1.000000 0.000000
vn 0.000000 1.000000 0.000000
vn 0.000000 0.000000 1.000000
vn 0.000000 0.000000 1.000000
vn -0.000000 0.000000 1.000000
vn 0.000000 0.000000 1.000000
vn 0.000000 0.000000 -1.000000
vn 0.000000 0.000000 -1.000000
vn -0.000000 0.000000 -1.000000
vn 0.000000 0.000000 -1.000000
vn 0.000000 0.000000 1.000000
vn 0.000000 0.000000 -1.000000
s 1
g Wall
usemtl initialShadingGroup
f 1/1/1 2/2/2 3/3/3 4/4/4
f 5/5/5 1/1/1 4/4/4 6/6/6
s 2
f 4/7/7 3/8/8 7/9/9 8/10/10
s 1
f 9/11/11 5/5/5 6/6/6 10/12/12
s 2
f 6/13/13 4/7/7 8/10/10 11/14/14
s 3
f 13/20/15 14/21/16 8/22/17 7/23/18
s 2
f 10/24/19 6/13/13 11/14/14 15/25/20
s 1
f 16/26/21 9/11/11 10/12/12 17/27/22
s 3
f 14/21/16 18/28/23 11/29/24 8/22/17
s off
f 19/30/25 16/31/26 17/32/27 20/33/28
f 21/34/29 19/30/30 20/33/31 22/35/32
s 3
f 23/36/33 21/37/34 22/38/35 15/39/36
f 18/28/23 23/36/33 15/39/36 11/29/24
s 2
f 17/32/37 22/35/38 20/33/39
s 4
f 37/90/40 35/207/41 36/91/42
s 2
f 17/32/37 10/24/19 15/25/20 22/35/38
s 5
f 24/46/43 27/49/44 26/48/45 25/47/46
f 28/50/47 29/51/48 27/49/44 24/46/43
s 6
f 27/52/49 31/55/50 30/54/51 26/53/52
s 5
f 32/56/53 33/57/54 29/51/48 28/50/47
s 6
f 29/58/55 34/59/56 31/55/50 27/52/49
s 7
f 36/65/57 30/68/58 31/67/59 37/66/60
s 6
f 33/69/61 38/70/62 34/59/56 29/58/55
s 5
f 39/71/63 40/72/64 33/57/54 32/56/53
s 7
f 37/66/60 31/67/59 34/74/65 41/73/66
s off
f 42/75/67 43/78/68 40/77/69 39/76/70
s 8
f 44/79/71 45/80/72 47/92/73
s 7
f 46/81/74 38/84/75 45/83/76 44/82/77
f 41/73/66 34/74/65 38/84/75 46/81/74
s 6
f 40/77/78 43/78/79 45/80/80
f 40/77/78 45/80/80 38/70/62 33/69/61
s 4
f 28/87/81 5/42/82 9/43/83 32/88/84
f 39/89/85 16/44/86 19/204/87 42/203/88
f 32/88/84 9/43/83 16/44/86 39/89/85
f 24/86/89 1/41/90 5/42/82 28/87/81
f 2/40/91 1/41/90 24/86/89 25/85/92
f 42/203/88 105/217/93 104/211/94 95/213/95
s 8
f 47/92/73 45/80/72 43/78/96 42/75/97
s 4
f 47/188/98 42/203/88 96/221/99
f 46/187/100 44/189/101 47/188/98 96/221/99
f 41/186/102 46/187/100 96/221/99
f 35/207/41 37/90/40 41/186/102 96/221/99
f 12/199/103 14/198/104 13/45/105
s 11
f 48/93/106 51/96/107 50/95/108 49/94/109
f 52/97/110 53/98/111 51/96/107 48/93/106
s 12
f 51/99/112 55/102/113 54/101/114 50/100/115
s 11
f 56/103/116 57/104/117 53/98/111 52/97/110
s 12
f 53/105/118 58/106/119 55/102/113 51/99/112
s 13
f 60/107/120 54/110/121 55/109/122 61/108/123
s 12
f 57/111/124 62/112/125 58/106/119 53/105/118
s 11
f 63/113/126 64/114/127 57/104/117 56/103/116
s 13
f 61/108/123 55/109/122 58/116/128 65/115/129
s off
f 66/117/130 67/120/131 64/119/132 63/118/133
f 68/121/134 69/122/135 67/120/136 66/117/137
s 13
f 70/123/138 62/126/139 69/125/140 68/124/141
f 65/115/129 58/116/128 62/126/139 70/123/138
s 12
f 64/119/142 67/120/143 69/122/144
s 14
f 84/127/145 83/128/146 82/194/147
s 12
f 64/119/142 69/122/144 62/112/125 57/111/124
s 15
f 71/129/148 72/132/149 73/131/150 74/130/151
f 75/133/152 71/129/148 74/130/151 76/134/153
s 16
f 74/135/154 73/138/155 77/137/156 78/136/157
s 15
f 79/139/158 75/133/152 76/134/153 80/140/159
s 16
f 76/141/160 74/135/154 78/136/157 81/142/161
s 17
f 83/143/162 84/146/163 78/145/164 77/144/165
s 16
f 80/147/166 76/141/160 81/142/161 85/148/167
s 15
f 86/149/168 79/139/158 80/140/159 87/150/169
s 17
f 84/146/163 88/152/170 81/151/171 78/145/164
s off
f 89/153/172 86/156/173 87/155/174 90/154/175
s 18
f 91/157/176 94/159/177 92/158/178
s 17
f 93/160/179 91/163/180 92/162/181 85/161/182
f 88/152/170 93/160/179 85/161/182 81/151/171
s 16
f 87/155/183 92/158/184 90/154/185
f 87/155/183 80/147/166 85/148/167 92/158/184
s 14
f 75/164/186 79/167/187 56/166/188 52/165/189
f 86/168/190 89/206/191 66/205/192 63/169/193
f 79/167/187 86/168/190 63/169/193 56/166/188
f 71/170/194 75/164/186 52/165/189 48/171/195
f 49/172/196 72/173/197 71/170/194 48/171/195
f 89/206/191 111/219/198 110/220/199 66/205/192
s 18
f 94/159/177 89/153/200 90/154/201 92/158/178
s 14
f 89/206/191 94/190/202 98/222/203
f 94/190/202 91/191/204 93/192/205 98/222/203
f 93/192/205 88/193/206 98/222/203
f 88/193/206 84/127/145 82/194/147 98/222/203
f 59/208/207 60/175/208 61/174/209
s off
f 35/60/210 82/176/211 83/185/212 77/184/213 73/183/214 72/182/215 49/181/216 50/180/217 54/179/218 60/178/219 59/177/220 12/15/221 13/16/222 7/17/223 3/18/224 2/19/225 25/64/226 26/63/227 30/62/228 36/61/229
f 82/194/230 35/207/231 96/221/232 98/222/233
s 23
f 104/211/234 112/218/235 97/209/236 95/213/237
s off
f 12/199/238 59/208/239 101/224/240 99/223/241
s 4
f 42/203/88 19/204/87 106/216/242 105/217/93
s 14
f 66/205/192 110/220/199 109/212/243 102/214/244
f 89/206/191 97/209/245 112/218/246 111/219/198
s 23
f 100/210/247 102/214/248 109/212/249 107/215/250
s 4
f 107/215/251 106/216/242 19/204/87 100/210/252
s 23
f 96/221/253 95/213/237 97/209/236 98/222/254
f 100/210/247 99/223/255 101/224/256 102/214/248
f 104/211/234 103/225/257 108/226/258 112/218/235
f 103/225/257 107/215/250 109/212/249 108/226/258
s 4
f 95/213/95 96/221/99 42/203/88
s 14
f 89/206/191 98/222/203 97/209/245
s 4
f 12/199/103 99/223/259 18/197/260 14/198/104
f 18/197/260 99/223/259 23/196/261
f 23/196/261 99/223/259 21/195/262
f 21/195/262 99/223/259 19/204/87
f 19/204/87 99/223/259 100/210/252
s 14
f 102/214/244 101/224/263 66/205/192
f 66/205/192 101/224/263 68/202/264
f 68/202/264 101/224/263 70/201/265
f 70/201/265 101/224/263 65/200/266
f 65/200/266 101/224/263 59/208/207 61/174/209
s 4
f 107/215/251 103/225/267 106/216/242
f 106/216/242 103/225/267 105/217/93
f 105/217/93 103/225/267 104/211/94
s 14
f 112/218/246 108/226/268 111/219/198
f 111/219/198 108/226/268 110/220/199
f 110/220/199 108/226/268 109/212/243
