# This file uses centimeters as units for non-parametric coordinates.

mtllib Wall.mtl
g default
v 13.357220 0.000000 0.750000
v 13.043951 6.806567 0.750000
v 8.000000 13.611527 0.750000
v 7.500000 14.636386 0.750000
v 12.642063 9.179327 0.750000
v 15.000000 0.000000 3.135996
v 13.357220 0.000000 3.135996
v 13.043951 6.806567 2.338032
v 11.234113 11.445095 0.750000
v 12.642063 9.179327 2.059863
v 7.500000 14.636386 1.420109
v 8.000000 13.611527 1.540257
v 11.234113 11.445095 1.794238
v 12.000300 16.907635 1.153840
v 15.000000 18.505285 0.966541
v 13.357220 -0.000000 -0.750000
v 13.043951 6.806567 -0.750000
v 8.000000 13.611527 -0.750000
v 7.500000 14.636386 -0.750000
v 12.642063 9.179327 -0.750000
v 15.000000 0.000000 -3.135996
v 13.357220 0.000000 -3.135996
v 13.043951 6.806567 -2.338032
v 11.234113 11.445095 -0.750000
v 12.642063 9.179327 -2.059863
v 7.500000 14.636386 -1.420109
v 8.000000 13.611527 -1.540257
v 11.234113 11.445095 -1.794238
v 12.000300 16.907635 -1.153840
v 15.000000 18.505285 -0.966541
v 7.500000 16.907635 -1.153840
v 7.500000 -0.000000 -0.750000
v 7.500000 6.806567 -0.750000
v 7.500000 9.179327 -0.750000
v 7.500000 11.445095 -0.750000
v 7.500000 13.611527 -0.750000
v 7.500000 0.000000 0.750000
v 7.500000 6.806567 0.750000
v 7.500000 9.179327 0.750000
v 7.500000 11.445095 0.750000
v 7.500000 13.611527 0.750000
v 7.500000 16.907635 1.153840
v 1.642780 -0.000000 0.750000
v 1.956049 6.806567 0.750000
v 7.000000 13.611527 0.750000
v 2.357937 9.179327 0.750000
v 0.000000 0.000000 3.135996
v 1.642780 0.000000 3.135996
v 1.956049 6.806567 2.338032
v 3.765887 11.445095 0.750000
v 2.357937 9.179327 2.059863
v 7.000000 13.611527 1.540257
v 3.765887 11.445095 1.794238
v 2.999700 16.907635 1.153840
v -0.000000 18.505285 0.966541
v 1.642780 -0.000000 -0.750000
v 1.956049 6.806567 -0.750000
v 7.000000 13.611527 -0.750000
v 2.357937 9.179327 -0.750000
v -0.000000 0.000000 -3.135996
v 1.642780 0.000000 -3.135996
v 1.956049 6.806567 -2.338032
v 3.765887 11.445095 -0.750000
v 2.357937 9.179327 -2.059863
v 7.000000 13.611527 -1.540257
v 3.765887 11.445095 -1.794238
v 2.999700 16.907635 -1.153840
v 0.000000 18.505285 -0.966541
v -13.357220 -0.000000 0.750000
v -13.043951 6.806567 0.750000
v -8.000000 13.611527 0.750000
v -7.500000 14.636386 0.750000
v -12.642063 9.179327 0.750000
v -15.000000 0.000000 3.135996
v -13.357220 0.000000 3.135996
v -13.043951 6.806567 2.338032
v -11.234113 11.445095 0.750000
v -12.642063 9.179327 2.059863
v -7.500000 14.636386 1.420109
v -8.000000 13.611527 1.540257
v -11.234113 11.445095 1.794238
v -12.000300 16.907635 1.153840
v -15.000000 18.505285 0.966541
v -13.357220 -0.000000 -0.750000
v -13.043951 6.806567 -0.750000
v -8.000000 13.611527 -0.750000
v -7.500000 14.636386 -0.750000
v -12.642063 9.179327 -0.750000
v -15.000000 0.000000 -3.135996
v -13.357220 0.000000 -3.135996
v -13.043951 6.806567 -2.338032
v -11.234113 11.445095 -0.750000
v -12.642063 9.179327 -2.059863
v -7.500000 14.636386 -1.420109
v -8.000000 13.611527 -1.540257
v -11.234113 11.445095 -1.794238
v -12.000300 16.907635 -1.153840
v -15.000000 18.505285 -0.966541
v -7.500000 16.907635 -1.153840
v -7.500000 -0.000000 -0.750000
v -7.500000 6.806567 -0.750000
v -7.500000 9.179327 -0.750000
v -7.500000 11.445095 -0.750000
v -7.500000 13.611527 -0.750000
v -7.500000 -0.000000 0.750000
v -7.500000 6.806567 0.750000
v -7.500000 9.179327 0.750000
v -7.500000 11.445095 0.750000
v -7.500000 13.611527 0.750000
v -7.500000 16.907635 1.153840
v -1.642780 -0.000000 0.750000
v -1.956049 6.806567 0.750000
v -7.000000 13.611527 0.750000
v -2.357937 9.179327 0.750000
v -1.642780 0.000000 3.135996
v -1.956049 6.806567 2.338032
v -3.765887 11.445095 0.750000
v -2.357937 9.179327 2.059863
v -7.000000 13.611527 1.540257
v -3.765887 11.445095 1.794238
v -2.999700 16.907635 1.153840
v -1.642780 -0.000000 -0.750000
v -1.956049 6.806567 -0.750000
v -7.000000 13.611527 -0.750000
v -2.357937 9.179327 -0.750000
v -1.642780 0.000000 -3.135996
v -1.956049 6.806567 -2.338032
v -3.765887 11.445095 -0.750000
v -2.357937 9.179327 -2.059863
v -7.000000 13.611527 -1.540257
v -3.765887 11.445095 -1.794238
v -2.999700 16.907635 -1.153840
vt 0.177740 0.962823
vt 0.602058 0.672663
vt 0.634971 0.672663
vt 0.891389 0.372874
vt 0.177741 0.403194
vt 0.868301 0.022374
vt 0.033255 0.024119
vt 0.862954 0.496361
vt 0.177741 0.535162
vt 0.598133 0.780146
vt 0.033255 0.898885
vt 0.177741 0.683168
vt 0.790463 0.614226
vt 0.033255 0.682424
vt 0.984380 0.018677
vt 0.177741 0.024119
vt 0.209876 0.981140
vt 0.033255 0.803314
vt 0.365475 0.898135
vt 0.602058 0.022373
vt 0.602058 0.346631
vt 0.177740 0.403194
vt 0.177741 0.024119
vt 0.602058 0.672663
vt 0.602058 0.721983
vt 0.568474 0.672663
vt 0.602058 0.459666
vt 0.177740 0.535162
vt 0.301688 0.372874
vt 0.301688 0.018677
vt 0.602058 0.567605
vt 0.177741 0.683168
vt 0.331282 0.496361
vt 0.598133 0.780146
vt 0.571851 0.726773
vt 0.404368 0.614226
vt 0.598133 0.898135
vt 0.602058 0.346631
vt 0.602058 0.022373
vt 0.602058 0.459666
vt 0.602058 0.567605
vt 0.177741 0.962822
vt 0.177740 0.898885
vt 0.301688 0.372874
vt 0.301688 0.018677
vt 0.177741 0.024119
vt 0.337510 0.346631
vt 0.331282 0.496361
vt 0.358527 0.459666
vt 0.571851 0.726773
vt 0.404368 0.614226
vt 0.429256 0.567605
vt 0.209876 0.981140
vt 0.984380 0.981140
vt 0.984380 0.018677
vt 0.365475 0.898135
vt 0.033255 0.803314
vt 0.868301 0.022373
vt 0.177740 0.403194
vt 0.177741 0.898885
vt 0.177740 0.535162
vt 0.891389 0.372874
vt 0.033255 0.024119
vt 0.177740 0.683168
vt 0.862954 0.496361
vt 0.033255 0.898885
vt 0.790463 0.614226
vt 0.177741 0.962822
vt 0.830791 0.898135
vt 0.891389 0.018677
vt 0.033255 0.535162
vt 0.033255 0.683168
vt 0.623549 0.726773
vt 0.033255 0.962822
vt 0.033255 0.403194
vt 0.033255 0.682424
vt 0.177741 0.803314
vt 0.177741 0.682424
vt 0.209876 0.018677
vt 0.033255 0.535162
vt 0.033255 0.683168
vt 0.033255 0.898885
vt 0.033255 0.403194
vt 0.033255 0.024119
vt 0.598133 0.898135
vt 0.177741 0.803314
vt 0.177741 0.682424
vt 0.209876 0.018677
vt 0.830791 0.898135
vt 0.984380 0.981140
vt 0.033255 0.024119
vt 0.033255 0.535163
vt 0.033255 0.683168
vt 0.033255 0.898885
vt 0.033255 0.962822
vt 0.033255 0.403194
vt 0.033255 0.024119
vt 0.033255 0.535162
vt 0.033255 0.683168
vt 0.623549 0.726773
vt 0.033255 0.403194
vt 0.891389 0.018677
vt 0.786358 0.567605
vt 0.634970 0.672663
vt 0.850275 0.459666
vt 0.868301 0.346631
vt 0.177740 0.962822
vt 0.177740 0.024119
vt 0.177741 0.535162
vt 0.177741 0.683168
vt 0.568474 0.672663
vt 0.177741 0.403194
vt 0.337510 0.022373
vt 0.602058 0.721983
vt 0.429256 0.567605
vt 0.177740 0.898885
vt 0.358527 0.459666
vt 0.337510 0.346631
vt 0.337510 0.022373
vt 0.786358 0.567605
vt 0.177741 0.898885
vt 0.850275 0.459666
vt 0.868301 0.346631
vt 0.177741 0.024119
vt 0.033255 0.962822
vt 0.033255 0.962823
vt 0.177740 0.962822
vt 0.033255 0.962823
vt 0.177740 0.962822
vt 0.033255 0.962823
vt 0.602058 0.721983
vt 0.602058 0.672663
vt 0.634971 0.672663
vt 0.033255 0.403194
vt 0.177741 0.403194
vt 0.177741 0.024119
vt 0.033255 0.024119
vt 0.033255 0.535162
vt 0.177741 0.535162
vt 0.033255 0.962822
vt 0.177740 0.962822
vt 0.177741 0.898885
vt 0.033255 0.898885
vt 0.177741 0.683168
vt 0.033255 0.683168
vt 0.033255 0.682424
vt 0.033255 0.024119
vt 0.177741 0.024119
vt 0.177741 0.682424
vt 0.033255 0.803314
vt 0.177741 0.803314
vt 0.790463 0.614226
vt 0.984380 0.981140
vt 0.830791 0.898135
vt 0.598133 0.780146
vt 0.623549 0.726773
vt 0.891389 0.372874
vt 0.984380 0.018677
vt 0.862954 0.496361
vt 0.891389 0.018677
vt 0.602058 0.022373
vt 0.602058 0.346631
vt 0.337510 0.346631
vt 0.337510 0.022373
vt 0.602058 0.672663
vt 0.602058 0.721983
vt 0.568474 0.672663
vt 0.602058 0.459666
vt 0.358527 0.459666
vt 0.033255 0.403194
vt 0.033255 0.024119
vt 0.177741 0.024119
vt 0.177740 0.403194
vt 0.602058 0.567605
vt 0.429256 0.567605
vt 0.033255 0.535162
vt 0.177740 0.535162
vt 0.033255 0.962823
vt 0.033255 0.898885
vt 0.177740 0.898885
vt 0.177740 0.962822
vt 0.033255 0.683168
vt 0.177741 0.683168
vt 0.404368 0.614226
vt 0.365475 0.898135
vt 0.209876 0.981140
vt 0.571851 0.726773
vt 0.598133 0.780146
vt 0.301688 0.372874
vt 0.331282 0.496361
vt 0.209876 0.018677
vt 0.301688 0.018677
vt 0.598133 0.898135
vt 0.602058 0.346631
vt 0.602058 0.022373
vt 0.868301 0.022374
vt 0.868301 0.346631
vt 0.602058 0.459666
vt 0.850275 0.459666
vt 0.602058 0.567605
vt 0.786358 0.567605
vt 0.598133 0.898135
vt 0.177741 0.962822
vt 0.033255 0.962822
vt 0.568474 0.672663
vt 0.033255 0.403194
vt 0.033255 0.024119
vt 0.177741 0.024119
vt 0.177741 0.403194
vt 0.033255 0.535163
vt 0.177741 0.535162
vt 0.033255 0.962823
vt 0.033255 0.898885
vt 0.177740 0.898885
vt 0.177740 0.962823
vt 0.033255 0.683168
vt 0.177741 0.683168
vt 0.177741 0.803314
vt 0.033255 0.803314
vt 0.033255 0.682424
vt 0.177741 0.682424
vt 0.404368 0.614226
vt 0.365475 0.898135
vt 0.209876 0.981140
vt 0.571851 0.726773
vt 0.301688 0.372874
vt 0.331282 0.496361
vt 0.209876 0.018677
vt 0.301688 0.018677
vt 0.868301 0.022373
vt 0.868301 0.346631
vt 0.634970 0.672663
vt 0.850275 0.459666
vt 0.033255 0.403194
vt 0.177740 0.403194
vt 0.177740 0.024119
vt 0.033255 0.024119
vt 0.786358 0.567605
vt 0.033255 0.535162
vt 0.177740 0.535162
vt 0.033255 0.962822
vt 0.177740 0.962822
vt 0.177741 0.898885
vt 0.033255 0.898885
vt 0.177740 0.683168
vt 0.033255 0.683168
vt 0.790463 0.614226
vt 0.984380 0.981140
vt 0.830791 0.898135
vt 0.623549 0.726773
vt 0.891389 0.372874
vt 0.984380 0.018677
vt 0.862954 0.496361
vt 0.891389 0.018677
vt 0.337510 0.346631
vt 0.337510 0.022373
vt 0.358527 0.459666
vt 0.429256 0.567605
vt 0.033255 0.962823
vt 0.177741 0.962822
vn 0.000000 0.000000 1.000000
vn 0.000000 0.000000 1.000000
vn 0.000000 0.000000 1.000000
vn -0.997682 -0.068052 0.000000
vn -0.997487 -0.070847 0.000000
vn -0.998943 -0.045976 0.000000
vn -0.998943 -0.045976 0.000000
vn -0.943306 -0.331924 0.000000
vn -0.938823 -0.344400 0.000000
vn -0.898745 -0.438473 0.000000
vn -0.898745 -0.438473 0.000000
vn -0.898745 -0.438473 0.000000
vn -0.898745 -0.438473 0.000000
vn -0.556541 -0.830820 0.000000
vn -0.556541 -0.830820 0.000000
vn -0.709417 -0.704789 0.000000
vn -0.717230 -0.696836 0.000000
vn 1.000000 0.000000 0.000000
vn 1.000000 0.000000 0.000000
vn 1.000000 0.000000 0.000000
vn 1.000000 0.000000 0.000000
vn -0.194079 0.980986 0.000000
vn -0.470087 0.882620 0.000000
vn -0.470087 0.882620 0.000000
vn -0.194079 0.980986 0.000000
vn -0.000000 0.116437 0.993198
vn 0.000000 0.116437 0.993198
vn 0.000000 0.116437 0.993198
vn -0.000000 0.116437 0.993198
vn -0.000000 0.116437 0.993198
vn 0.000000 0.116437 0.993198
vn 0.000000 0.116437 0.993198
vn -0.000000 0.116437 0.993198
vn 0.000000 0.116437 0.993198
vn 0.000000 0.000000 -1.000000
vn 0.000000 0.000000 -1.000000
vn 0.000000 0.000000 -1.000000
vn 0.000000 0.000000 -1.000000
vn 0.000000 0.000000 -1.000000
vn 0.000000 0.000000 -1.000000
vn 0.000000 0.000000 -1.000000
vn 0.000000 0.000000 -1.000000
vn 0.000000 0.000000 -1.000000
vn -0.997682 -0.068052 0.000000
vn -0.998943 -0.045976 0.000000
vn -0.998943 -0.045976 0.000000
vn -0.997487 -0.070847 0.000000
vn 0.000000 0.000000 -1.000000
vn 0.000000 0.000000 -1.000000
vn -0.943306 -0.331924 0.000000
vn -0.938823 -0.344400 0.000000
vn -0.898745 -0.438472 0.000000
vn -0.898745 -0.438472 0.000000
vn -0.898745 -0.438472 0.000000
vn -0.898745 -0.438472 0.000000
vn -0.556541 -0.830820 0.000000
vn -0.717230 -0.696836 0.000000
vn -0.709417 -0.704789 0.000000
vn -0.556541 -0.830820 0.000000
vn 0.000000 0.116437 -0.993198
vn 0.000000 0.116437 -0.993198
vn 0.000000 0.116437 -0.993198
vn 0.000000 0.116437 -0.993198
vn 0.000000 0.116437 -0.993198
vn 0.000000 0.116437 -0.993198
vn 0.000000 0.116437 -0.993198
vn 0.000000 0.116437 -0.993198
vn 0.000000 0.116437 -0.993198
vn 0.000000 0.116437 -0.993198
vn 0.000000 0.000000 1.000000
vn 0.000000 0.000000 1.000000
vn 0.000000 0.000000 1.000000
vn 0.000000 0.000000 1.000000
vn 0.000000 0.000000 1.000000
vn 0.000000 0.000000 1.000000
vn 0.000000 0.000000 1.000000
vn 0.000000 0.000000 1.000000
vn 0.000000 0.116437 0.993198
vn 0.000000 1.000000 0.000000
vn 0.000000 1.000000 0.000000
vn 0.000000 0.000000 1.000000
vn 0.997682 -0.068052 0.000000
vn 0.998943 -0.045976 0.000000
vn 0.998943 -0.045976 0.000000
vn 0.997487 -0.070847 0.000000
vn 0.943306 -0.331924 0.000000
vn 0.938823 -0.344400 0.000000
vn 0.898745 -0.438473 0.000000
vn 0.898745 -0.438473 0.000000
vn 0.898745 -0.438473 0.000000
vn 0.898745 -0.438473 0.000000
vn 0.556541 -0.830820 0.000000
vn 0.717230 -0.696836 0.000000
vn 0.709418 -0.704789 0.000000
vn 0.556541 -0.830820 0.000000
vn 0.194079 0.980986 0.000000
vn 0.194079 0.980986 0.000000
vn 0.470087 0.882620 0.000000
vn 0.470087 0.882620 0.000000
vn -0.000000 0.116437 0.993198
vn -0.000000 0.116437 0.993198
vn -0.000000 0.116437 0.993198
vn 0.000000 0.116437 0.993198
vn 0.000000 0.116437 0.993198
vn 0.000000 0.116437 0.993198
vn 0.000000 0.116437 0.993198
vn 0.000000 0.116437 0.993198
vn 0.000000 0.000000 -1.000000
vn 0.000000 0.000000 -1.000000
vn 0.000000 0.000000 -1.000000
vn 0.000000 0.000000 -1.000000
vn 0.997682 -0.068052 0.000000
vn 0.997487 -0.070847 0.000000
vn 0.998943 -0.045976 0.000000
vn 0.998943 -0.045976 0.000000
vn 0.000000 0.000000 -1.000000
vn 0.943306 -0.331924 0.000000
vn 0.938823 -0.344400 0.000000
vn 0.898745 -0.438473 0.000000
vn 0.898745 -0.438473 0.000000
vn 0.898745 -0.438473 0.000000
vn 0.898745 -0.438473 0.000000
vn 0.556541 -0.830820 0.000000
vn 0.556541 -0.830820 0.000000
vn 0.709418 -0.704789 0.000000
vn 0.717230 -0.696836 0.000000
vn 0.000000 0.116437 -0.993198
vn 0.000000 0.116437 -0.993198
vn -0.000000 0.116437 -0.993198
vn 0.000000 0.116437 -0.993198
vn 0.000000 0.116437 -0.993198
vn 0.000000 0.116437 -0.993198
vn 0.000000 0.116437 -0.993198
vn 0.000000 0.116437 -0.993198
vn 0.000000 0.000000 1.000000
vn 0.000000 0.000000 1.000000
vn 0.000000 0.000000 1.000000
vn 0.000000 0.000000 1.000000
vn 0.000000 0.000000 1.000000
vn 0.000000 0.000000 1.000000
vn 0.000000 0.000000 1.000000
vn 0.997682 -0.068052 0.000000
vn 0.998943 -0.045976 0.000000
vn 0.998943 -0.045976 0.000000
vn 0.997487 -0.070847 0.000000
vn 0.943306 -0.331924 0.000000
vn 0.938823 -0.344400 0.000000
vn 0.898745 -0.438472 0.000000
vn 0.898745 -0.438472 0.000000
vn 0.898745 -0.438472 0.000000
vn 0.898745 -0.438472 0.000000
vn 0.556541 -0.830820 0.000000
vn 0.717230 -0.696836 0.000000
vn 0.709417 -0.704789 0.000000
vn 0.556541 -0.830820 0.000000
vn -1.000000 0.000000 0.000000
vn -1.000000 0.000000 0.000000
vn -1.000000 0.000000 0.000000
vn -1.000000 0.000000 0.000000
vn 0.194079 0.980986 0.000000
vn 0.194079 0.980986 0.000000
vn 0.470087 0.882620 0.000000
vn 0.470087 0.882620 0.000000
vn -0.000000 0.116437 0.993198
vn -0.000000 0.116437 0.993198
vn -0.000000 0.116437 0.993198
vn 0.000000 0.116437 0.993198
vn -0.000000 0.116437 0.993198
vn 0.000000 0.116437 0.993198
vn 0.000000 0.116437 0.993198
vn 0.000000 0.116437 0.993198
vn 0.000000 0.116437 0.993198
vn 0.000000 0.000000 -1.000000
vn 0.000000 0.000000 -1.000000
vn 0.000000 0.000000 -1.000000
vn 0.000000 0.000000 -1.000000
vn 0.000000 0.000000 -1.000000
vn 0.000000 0.000000 -1.000000
vn 0.000000 0.000000 -1.000000
vn 0.000000 0.000000 -1.000000
vn 0.000000 0.000000 -1.000000
vn 0.997682 -0.068052 0.000000
vn 0.997487 -0.070847 0.000000
vn 0.998943 -0.045976 0.000000
vn 0.998943 -0.045976 0.000000
vn 0.000000 0.000000 -1.000000
vn 0.000000 0.000000 -1.000000
vn 0.943306 -0.331924 0.000000
vn 0.938823 -0.344400 0.000000
vn 0.898745 -0.438473 0.000000
vn 0.898745 -0.438473 0.000000
vn 0.898745 -0.438473 0.000000
vn 0.898745 -0.438473 0.000000
vn 0.556541 -0.830820 0.000000
vn 0.556541 -0.830820 0.000000
vn 0.709417 -0.704789 0.000000
vn 0.717230 -0.696836 0.000000
vn 0.000000 0.116437 -0.993198
vn -0.000000 0.116437 -0.993198
vn -0.000000 0.116437 -0.993198
vn 0.000000 0.116437 -0.993198
vn 0.000000 0.116437 -0.993198
vn 0.000000 0.116437 -0.993198
vn 0.000000 0.116437 -0.993198
vn 0.000000 0.116437 -0.993198
vn 0.000000 0.116437 -0.993198
vn 0.000000 0.116437 -0.993198
vn 0.000000 0.000000 1.000000
vn 0.000000 0.000000 1.000000
vn 0.000000 0.000000 1.000000
vn 0.000000 0.000000 1.000000
vn 0.000000 0.000000 1.000000
vn 0.000000 0.000000 1.000000
vn 0.000000 0.000000 1.000000
vn 0.000000 0.000000 1.000000
vn 0.000000 0.116437 0.993198
vn 0.000000 1.000000 0.000000
vn 0.000000 1.000000 0.000000
vn 0.000000 0.000000 1.000000
vn -0.997682 -0.068052 0.000000
vn -0.997487 -0.070847 0.000000
vn -0.998943 -0.045976 0.000000
vn -0.998943 -0.045976 0.000000
vn -0.943306 -0.331924 0.000000
vn -0.938823 -0.344400 0.000000
vn -0.898745 -0.438473 0.000000
vn -0.898745 -0.438473 0.000000
vn -0.898745 -0.438473 0.000000
vn -0.898745 -0.438473 0.000000
vn -0.556541 -0.830820 0.000000
vn -0.556541 -0.830820 0.000000
vn -0.709418 -0.704789 0.000000
vn -0.717230 -0.696836 0.000000
vn -0.194079 0.980986 0.000000
vn -0.470087 0.882620 0.000000
vn -0.470087 0.882620 0.000000
vn -0.194079 0.980986 0.000000
vn -0.000000 0.116437 0.993198
vn 0.000000 0.116437 0.993198
vn -0.000000 0.116437 0.993198
vn 0.000000 0.116437 0.993198
vn -0.000000 0.116437 0.993198
vn 0.000000 0.116437 0.993198
vn 0.000000 0.000000 -1.000000
vn 0.000000 0.000000 -1.000000
vn 0.000000 0.000000 -1.000000
vn 0.000000 0.000000 -1.000000
vn -0.997682 -0.068052 0.000000
vn -0.998943 -0.045976 0.000000
vn -0.998943 -0.045976 0.000000
vn -0.997487 -0.070847 0.000000
vn 0.000000 0.000000 -1.000000
vn -0.943306 -0.331924 0.000000
vn -0.938823 -0.344400 0.000000
vn -0.898745 -0.438473 0.000000
vn -0.898745 -0.438473 0.000000
vn -0.898745 -0.438473 0.000000
vn -0.898745 -0.438473 0.000000
vn -0.556541 -0.830820 0.000000
vn -0.717230 -0.696836 0.000000
vn -0.709418 -0.704789 0.000000
vn -0.556541 -0.830820 0.000000
vn 0.000000 0.116437 -0.993198
vn 0.000000 0.116437 -0.993198
vn 0.000000 0.116437 -0.993198
vn 0.000000 0.116437 -0.993198
vn 0.000000 0.116437 -0.993198
vn 0.000000 0.116437 -0.993198
vn 0.000000 0.000000 1.000000
vn 0.000000 0.000000 1.000000
vn 0.000000 0.000000 1.000000
vn 0.000000 0.000000 1.000000
s 1
g WallLong
usemtl lambert2SG
f 4/114/1 41/2/2 3/3/3
s 2
f 8/101/4 2/5/5 1/124/6 7/7/7
f 10/98/8 5/9/9 2/5/5 8/101/4
s off
f 11/95/10 4/129/11 3/121/12 12/11/13
s 2
f 12/11/14 3/121/15 9/12/16 13/99/17
f 13/99/17 9/12/16 5/9/9 10/98/8
s off
f 15/14/18 6/91/19 21/16/20 30/78/21
s 3
f 14/18/22 15/14/23 30/78/24 29/77/25
s 4
f 13/13/26 15/90/27 14/89/28
f 13/13/26 14/89/28 11/10/29 12/100/30
f 8/4/31 6/15/32 15/90/27 10/8/33
f 10/8/33 15/90/27 13/13/26
f 8/4/31 7/102/34 6/15/32
s 6
f 32/20/35 33/21/36 17/118/37 16/119/38
f 36/24/39 19/25/40 18/26/41
f 33/21/36 34/27/42 20/117/43 17/118/37
s 8
f 23/83/44 22/84/45 16/23/46 17/22/47
s 6
f 34/27/42 35/31/48 24/115/49 20/117/43
f 35/31/48 36/24/39 18/26/41 24/115/49
s 8
f 25/80/50 23/83/44 17/22/47 20/28/51
s off
f 26/128/52 27/82/53 18/116/54 19/107/55
s 8
f 27/82/56 28/81/57 24/32/58 18/116/59
f 28/81/57 25/80/50 20/28/51 24/32/58
s 9
f 28/36/60 29/19/61 30/17/62
f 28/36/60 27/35/63 26/34/64 29/19/61
f 23/29/65 25/33/66 30/17/62 21/79/67
f 25/33/66 28/36/60 30/17/62
f 23/29/65 21/79/67 22/30/68
f 26/34/64 31/37/69 29/19/61
s 1
f 38/38/70 37/39/71 1/6/72 2/123/73
f 39/40/74 38/38/70 2/123/73 5/122/75
f 40/41/76 39/40/74 5/122/75 9/120/77
f 41/2/2 40/41/76 9/120/77 3/3/3
s 4
f 11/10/29 14/89/28 42/85/78
s 3
f 31/68/79 42/125/80 14/18/22 29/77/25
s 1
f 4/114/1 45/111/81 41/2/2
s 11
f 49/96/82 48/97/83 43/46/84 44/112/85
f 51/92/86 49/96/82 44/112/85 46/109/87
s off
f 11/130/88 52/94/89 45/43/90 4/1/91
s 11
f 52/94/92 53/93/93 50/110/94 45/43/95
f 53/93/93 51/92/86 46/109/87 50/110/94
s 3
f 54/86/96 67/57/97 68/76/98 55/87/99
s 4
f 53/51/100 54/56/101 55/53/102
f 53/51/100 52/50/103 11/10/29 54/56/101
f 49/44/104 51/48/105 55/53/102 47/88/106
f 51/48/105 53/51/100 55/53/102
f 49/44/104 47/88/106 48/45/107
s 6
f 32/20/35 56/58/108 57/106/109 33/21/36
f 36/24/39 58/104/110 19/25/40
f 33/21/36 57/106/109 59/105/111 34/27/42
s 13
f 62/75/112 57/59/113 56/108/114 61/63/115
s 6
f 34/27/42 59/105/111 63/103/116 35/31/48
f 35/31/48 63/103/116 58/104/110 36/24/39
s 13
f 64/71/117 59/61/118 57/59/113 62/75/112
s off
f 26/74/119 19/127/120 58/60/121 65/66/122
s 13
f 65/66/123 58/60/124 63/64/125 66/72/126
f 66/72/126 63/64/125 59/61/118 64/71/117
s 9
f 66/67/127 68/54/128 67/69/129
f 66/67/127 67/69/129 26/34/64 65/73/130
f 62/62/131 60/55/132 68/54/128 64/65/133
f 64/65/133 68/54/128 66/67/127
f 62/62/131 61/70/134 60/55/132
f 26/34/64 67/69/129 31/37/69
s 1
f 38/38/70 44/47/135 43/113/136 37/39/71
f 39/40/74 46/49/137 44/47/135 38/38/70
f 40/41/76 50/52/138 46/49/137 39/40/74
f 41/2/2 45/111/81 50/52/138 40/41/76
s 4
f 11/10/29 42/85/78 54/56/101
s 3
f 31/126/79 67/57/97 54/86/96 42/42/80
s 16
f 72/131/139 71/133/140 109/132/141
s 17
f 76/134/142 75/137/143 69/136/144 70/135/145
f 78/138/146 76/134/142 70/135/145 73/139/147
s off
f 79/140/148 80/143/149 71/142/150 72/141/151
s 17
f 80/143/152 81/145/153 77/144/154 71/142/155
f 81/145/153 78/138/146 73/139/147 77/144/154
s off
f 83/146/156 98/149/157 89/148/158 74/147/159
s 18
f 82/150/160 97/151/161 98/149/162 83/146/163
s 4
f 81/152/164 82/154/165 83/153/166
f 81/152/164 80/156/167 79/155/168 82/154/165
f 76/157/169 78/159/170 83/153/166 74/158/171
f 78/159/170 81/152/164 83/153/166
f 76/157/169 74/158/171 75/160/172
s 20
f 100/161/173 84/164/174 85/163/175 101/162/176
f 104/165/177 86/167/178 87/166/179
f 101/162/176 85/163/175 88/169/180 102/168/181
s 22
f 91/170/182 85/173/183 84/172/184 90/171/185
s 20
f 102/168/181 88/169/180 92/175/186 103/174/187
f 103/174/187 92/175/186 86/167/178 104/165/177
s 22
f 93/176/188 88/177/189 85/173/183 91/170/182
s off
f 94/178/190 87/181/191 86/180/192 95/179/193
s 22
f 95/179/194 86/180/195 92/183/196 96/182/197
f 96/182/197 92/183/196 88/177/189 93/176/188
s 9
f 96/184/198 98/186/199 97/185/200
f 96/184/198 97/185/200 94/188/201 95/187/202
f 91/189/203 89/191/204 98/186/199 93/190/205
f 93/190/205 98/186/199 96/184/198
f 91/189/203 90/192/206 89/191/204
f 94/188/201 97/185/200 99/193/207
s 16
f 106/194/208 70/197/209 69/196/210 105/195/211
f 107/198/212 73/199/213 70/197/209 106/194/208
f 108/200/214 77/201/215 73/199/213 107/198/212
f 109/132/141 71/133/140 77/201/215 108/200/214
s 4
f 79/155/168 110/202/216 82/154/165
s 18
f 99/203/217 97/151/161 82/150/160 110/204/218
s 16
f 72/131/139 109/132/141 113/205/219
s 26
f 116/206/220 112/209/221 111/208/222 115/207/223
f 118/210/224 114/211/225 112/209/221 116/206/220
s off
f 79/212/226 72/215/227 113/214/228 119/213/229
s 26
f 119/213/230 113/214/231 117/217/232 120/216/233
f 120/216/233 117/217/232 114/211/225 118/210/224
s 18
f 121/218/234 55/221/235 68/220/236 132/219/237
s 4
f 120/222/238 55/224/102 121/223/239
f 120/222/238 121/223/239 79/155/168 119/225/240
f 116/226/241 47/228/106 55/224/102 118/227/242
f 118/227/242 55/224/102 120/222/238
f 116/226/241 115/229/243 47/228/106
s 20
f 100/161/173 101/162/176 123/231/244 122/230/245
f 104/165/177 87/166/179 124/232/246
f 101/162/176 102/168/181 125/233/247 123/231/244
s 28
f 127/234/248 126/237/249 122/236/250 123/235/251
s 20
f 102/168/181 103/174/187 128/238/252 125/233/247
f 103/174/187 104/165/177 124/232/246 128/238/252
s 28
f 129/239/253 127/234/248 123/235/251 125/240/254
s off
f 94/241/255 130/244/256 124/243/257 87/242/258
s 28
f 130/244/259 131/246/260 128/245/261 124/243/262
f 131/246/260 129/239/253 125/240/254 128/245/261
s 9
f 131/247/263 132/249/264 68/248/128
f 131/247/263 130/250/265 94/188/201 132/249/264
f 127/251/266 129/253/267 68/248/128 60/252/132
f 129/253/267 131/247/263 68/248/128
f 127/251/266 60/252/132 126/254/268
f 94/188/201 99/193/207 132/249/264
s 16
f 106/194/208 105/195/211 111/256/269 112/255/270
f 107/198/212 106/194/208 112/255/270 114/257/271
f 108/200/214 107/198/212 114/257/271 117/258/272
f 109/132/141 108/200/214 117/258/272 113/205/219
s 4
f 79/155/168 121/223/239 110/202/216
s 18
f 99/259/217 110/260/218 121/218/234 132/219/237
