# This file uses centimeters as units for non-parametric coordinates.

mtllib WallShort.mtl
g default
v 5.857220 0.000000 0.750000
v 5.543951 6.806567 0.750000
v 0.500000 13.611527 0.750000
v 0.000000 14.636386 0.750000
v 5.142063 9.179327 0.750000
v 7.500000 0.000000 3.135996
v 5.857220 0.000000 3.135996
v 5.543951 6.806567 2.338032
v 3.734113 11.445095 0.750000
v 5.142063 9.179327 2.059863
v 0.000000 14.636386 1.420109
v 0.500000 13.611527 1.540257
v 3.734113 11.445095 1.794238
v 4.500300 16.907635 1.153840
v 7.500000 18.505285 0.966541
v 5.857220 -0.000000 -0.750000
v 5.543951 6.806567 -0.750000
v 0.500000 13.611527 -0.750000
v 0.000000 14.636386 -0.750000
v 5.142063 9.179327 -0.750000
v 7.500000 0.000000 -3.135996
v 5.857220 0.000000 -3.135996
v 5.543951 6.806567 -2.338032
v 3.734113 11.445095 -0.750000
v 5.142063 9.179327 -2.059863
v 0.000000 14.636386 -1.420109
v 0.500000 13.611527 -1.540257
v 3.734113 11.445095 -1.794238
v 4.500300 16.907635 -1.153840
v 7.500000 18.505285 -0.966541
v 0.000000 16.907635 -1.153840
v 0.000000 -0.000000 -0.750000
v 0.000000 6.806567 -0.750000
v 0.000000 9.179327 -0.750000
v 0.000000 11.445095 -0.750000
v 0.000000 13.611527 -0.750000
v 0.000000 0.000000 0.750000
v 0.000000 6.806567 0.750000
v 0.000000 9.179327 0.750000
v 0.000000 11.445095 0.750000
v 0.000000 13.611527 0.750000
v 0.000000 16.907635 1.153840
v -5.857220 -0.000000 0.750000
v -5.543951 6.806567 0.750000
v -0.500000 13.611527 0.750000
v -5.142063 9.179327 0.750000
v -7.500000 0.000000 3.135996
v -5.857220 0.000000 3.135996
v -5.543951 6.806567 2.338032
v -3.734113 11.445095 0.750000
v -5.142063 9.179327 2.059863
v -0.500000 13.611527 1.540257
v -3.734113 11.445095 1.794238
v -4.500300 16.907635 1.153840
v -7.500000 18.505285 0.966541
v -5.857220 -0.000000 -0.750000
v -5.543951 6.806567 -0.750000
v -0.500000 13.611527 -0.750000
v -5.142063 9.179327 -0.750000
v -7.500000 0.000000 -3.135996
v -5.857220 0.000000 -3.135996
v -5.543951 6.806567 -2.338032
v -3.734113 11.445095 -0.750000
v -5.142063 9.179327 -2.059863
v -0.500000 13.611527 -1.540257
v -3.734113 11.445095 -1.794238
v -4.500300 16.907635 -1.153840
v -7.500000 18.505285 -0.966541
vt 0.177740 0.962823
vt 0.602058 0.672663
vt 0.634971 0.672663
vt 0.891389 0.372874
vt 0.177741 0.403194
vt 0.868301 0.022374
vt 0.033255 0.024119
vt 0.862954 0.496361
vt 0.177741 0.535162
vt 0.598133 0.780146
vt 0.033255 0.898885
vt 0.177741 0.683168
vt 0.790463 0.614226
vt 0.033255 0.682424
vt 0.984380 0.018677
vt 0.177741 0.024119
vt 0.209876 0.981140
vt 0.033255 0.803314
vt 0.365475 0.898135
vt 0.602058 0.022373
vt 0.602058 0.346631
vt 0.177740 0.403194
vt 0.177741 0.024119
vt 0.602058 0.672663
vt 0.602058 0.721983
vt 0.568474 0.672663
vt 0.602058 0.459666
vt 0.177740 0.535162
vt 0.301688 0.372874
vt 0.301688 0.018677
vt 0.602058 0.567605
vt 0.177741 0.683168
vt 0.331282 0.496361
vt 0.598133 0.780146
vt 0.571851 0.726773
vt 0.404368 0.614226
vt 0.598133 0.898135
vt 0.602058 0.346631
vt 0.602058 0.022373
vt 0.602058 0.459666
vt 0.602058 0.567605
vt 0.177741 0.962822
vt 0.177740 0.898885
vt 0.301688 0.372874
vt 0.301688 0.018677
vt 0.177741 0.024119
vt 0.337510 0.346631
vt 0.331282 0.496361
vt 0.358527 0.459666
vt 0.571851 0.726773
vt 0.404368 0.614226
vt 0.429256 0.567605
vt 0.209876 0.981140
vt 0.984380 0.981140
vt 0.984380 0.018677
vt 0.177741 0.024119
vt 0.365475 0.898135
vt 0.033255 0.803314
vt 0.868301 0.022373
vt 0.177740 0.403194
vt 0.177741 0.898885
vt 0.177740 0.535162
vt 0.891389 0.372874
vt 0.033255 0.024119
vt 0.177740 0.683168
vt 0.862954 0.496361
vt 0.033255 0.898885
vt 0.790463 0.614226
vt 0.177741 0.962822
vt 0.830791 0.898135
vt 0.033255 0.024119
vt 0.891389 0.018677
vt 0.033255 0.535162
vt 0.033255 0.683168
vt 0.623549 0.726773
vt 0.033255 0.962822
vt 0.033255 0.403194
vt 0.033255 0.682424
vt 0.177741 0.803314
vt 0.177741 0.682424
vt 0.209876 0.018677
vt 0.033255 0.535162
vt 0.033255 0.683168
vt 0.033255 0.898885
vt 0.033255 0.403194
vt 0.033255 0.024119
vt 0.598133 0.898135
vt 0.177741 0.803314
vt 0.177741 0.682424
vt 0.209876 0.018677
vt 0.830791 0.898135
vt 0.984380 0.981140
vt 0.033255 0.024119
vt 0.033255 0.535163
vt 0.033255 0.683168
vt 0.033255 0.898885
vt 0.033255 0.962822
vt 0.033255 0.403194
vt 0.033255 0.024119
vt 0.033255 0.535162
vt 0.033255 0.683168
vt 0.623549 0.726773
vt 0.033255 0.403194
vt 0.891389 0.018677
vt 0.786358 0.567605
vt 0.634970 0.672663
vt 0.850275 0.459666
vt 0.868301 0.346631
vt 0.177740 0.962822
vt 0.177740 0.024119
vt 0.177741 0.535162
vt 0.177741 0.683168
vt 0.568474 0.672663
vt 0.177741 0.403194
vt 0.337510 0.022373
vt 0.602058 0.721983
vt 0.429256 0.567605
vt 0.177740 0.898885
vt 0.358527 0.459666
vt 0.337510 0.346631
vt 0.337510 0.022373
vt 0.786358 0.567605
vt 0.177741 0.898885
vt 0.850275 0.459666
vt 0.868301 0.346631
vt 0.177741 0.024119
vt 0.033255 0.962822
vt 0.033255 0.962823
vt 0.177740 0.962822
vt 0.033255 0.962823
vt 0.177740 0.962822
vt 0.033255 0.962823
vn 0.000000 0.000000 1.000000
vn 0.000000 0.000000 1.000000
vn 0.000000 0.000000 1.000000
vn -0.997682 -0.068052 0.000000
vn -0.997487 -0.070847 0.000000
vn -0.998943 -0.045976 0.000000
vn -0.998943 -0.045976 0.000000
vn -0.943306 -0.331924 0.000000
vn -0.938823 -0.344400 0.000000
vn -0.898745 -0.438473 0.000000
vn -0.898745 -0.438473 0.000000
vn -0.898745 -0.438473 0.000000
vn -0.898745 -0.438473 0.000000
vn -0.556541 -0.830820 0.000000
vn -0.556541 -0.830820 0.000000
vn -0.709417 -0.704789 0.000000
vn -0.717230 -0.696836 0.000000
vn 1.000000 0.000000 0.000000
vn 1.000000 0.000000 0.000000
vn 1.000000 0.000000 0.000000
vn 1.000000 0.000000 0.000000
vn -0.194079 0.980986 0.000000
vn -0.470087 0.882620 0.000000
vn -0.470087 0.882620 0.000000
vn -0.194079 0.980986 0.000000
vn -0.000000 0.116437 0.993198
vn 0.000000 0.116437 0.993198
vn 0.000000 0.116437 0.993198
vn -0.000000 0.116437 0.993198
vn -0.000000 0.116437 0.993198
vn 0.000000 0.116437 0.993198
vn 0.000000 0.116437 0.993198
vn -0.000000 0.116437 0.993198
vn 0.000000 0.116437 0.993198
vn 0.000000 0.000000 -1.000000
vn 0.000000 0.000000 -1.000000
vn 0.000000 0.000000 -1.000000
vn 0.000000 0.000000 -1.000000
vn 0.000000 0.000000 -1.000000
vn 0.000000 0.000000 -1.000000
vn 0.000000 0.000000 -1.000000
vn 0.000000 0.000000 -1.000000
vn 0.000000 0.000000 -1.000000
vn -0.997682 -0.068052 0.000000
vn -0.998943 -0.045976 0.000000
vn -0.998943 -0.045976 0.000000
vn -0.997487 -0.070847 0.000000
vn 0.000000 0.000000 -1.000000
vn 0.000000 0.000000 -1.000000
vn -0.943306 -0.331924 0.000000
vn -0.938823 -0.344400 0.000000
vn -0.898745 -0.438472 0.000000
vn -0.898745 -0.438472 0.000000
vn -0.898745 -0.438472 0.000000
vn -0.898745 -0.438472 0.000000
vn -0.556541 -0.830820 0.000000
vn -0.717230 -0.696836 0.000000
vn -0.709417 -0.704789 0.000000
vn -0.556541 -0.830820 0.000000
vn 0.000000 0.116437 -0.993198
vn 0.000000 0.116437 -0.993198
vn 0.000000 0.116437 -0.993198
vn 0.000000 0.116437 -0.993198
vn 0.000000 0.116437 -0.993198
vn 0.000000 0.116437 -0.993198
vn 0.000000 0.116437 -0.993198
vn 0.000000 0.116437 -0.993198
vn 0.000000 0.116437 -0.993198
vn 0.000000 0.116437 -0.993198
vn 0.000000 0.000000 1.000000
vn 0.000000 0.000000 1.000000
vn 0.000000 0.000000 1.000000
vn 0.000000 0.000000 1.000000
vn 0.000000 0.000000 1.000000
vn 0.000000 0.000000 1.000000
vn 0.000000 0.000000 1.000000
vn 0.000000 0.000000 1.000000
vn 0.000000 0.116437 0.993198
vn 0.000000 1.000000 0.000000
vn 0.000000 1.000000 0.000000
vn 0.000000 0.000000 1.000000
vn 0.997682 -0.068052 0.000000
vn 0.998943 -0.045976 0.000000
vn 0.998943 -0.045976 0.000000
vn 0.997487 -0.070847 0.000000
vn 0.943306 -0.331924 0.000000
vn 0.938823 -0.344400 0.000000
vn 0.898745 -0.438473 0.000000
vn 0.898745 -0.438473 0.000000
vn 0.898745 -0.438473 0.000000
vn 0.898745 -0.438473 0.000000
vn 0.556541 -0.830820 0.000000
vn 0.717230 -0.696836 0.000000
vn 0.709418 -0.704789 0.000000
vn 0.556541 -0.830820 0.000000
vn -1.000000 0.000000 0.000000
vn -1.000000 0.000000 0.000000
vn -1.000000 0.000000 0.000000
vn -1.000000 0.000000 0.000000
vn 0.194079 0.980986 0.000000
vn 0.194079 0.980986 0.000000
vn 0.470087 0.882620 0.000000
vn 0.470087 0.882620 0.000000
vn -0.000000 0.116437 0.993198
vn -0.000000 0.116437 0.993198
vn -0.000000 0.116437 0.993198
vn 0.000000 0.116437 0.993198
vn 0.000000 0.116437 0.993198
vn 0.000000 0.116437 0.993198
vn 0.000000 0.116437 0.993198
vn 0.000000 0.116437 0.993198
vn 0.000000 0.000000 -1.000000
vn 0.000000 0.000000 -1.000000
vn 0.000000 0.000000 -1.000000
vn 0.000000 0.000000 -1.000000
vn 0.997682 -0.068052 0.000000
vn 0.997487 -0.070847 0.000000
vn 0.998943 -0.045976 0.000000
vn 0.998943 -0.045976 0.000000
vn 0.000000 0.000000 -1.000000
vn 0.943306 -0.331924 0.000000
vn 0.938823 -0.344400 0.000000
vn 0.898745 -0.438473 0.000000
vn 0.898745 -0.438473 0.000000
vn 0.898745 -0.438473 0.000000
vn 0.898745 -0.438473 0.000000
vn 0.556541 -0.830820 0.000000
vn 0.556541 -0.830820 0.000000
vn 0.709418 -0.704789 0.000000
vn 0.717230 -0.696836 0.000000
vn 0.000000 0.116437 -0.993198
vn -0.000000 0.116437 -0.993198
vn -0.000000 0.116437 -0.993198
vn 0.000000 0.116437 -0.993198
vn 0.000000 0.116437 -0.993198
vn 0.000000 0.116437 -0.993198
vn 0.000000 0.116437 -0.993198
vn 0.000000 0.116437 -0.993198
vn 0.000000 0.000000 1.000000
vn 0.000000 0.000000 1.000000
vn 0.000000 0.000000 1.000000
vn 0.000000 0.000000 1.000000
s 1
g WallShort
usemtl lambert2SG
f 4/116/1 41/2/2 3/3/3
s 2
f 8/103/4 2/5/5 1/126/6 7/7/7
f 10/100/8 5/9/9 2/5/5 8/103/4
s off
f 11/97/10 4/131/11 3/123/12 12/11/13
s 2
f 12/11/14 3/123/15 9/12/16 13/101/17
f 13/101/17 9/12/16 5/9/9 10/100/8
s off
f 15/14/18 6/93/19 21/16/20 30/80/21
s 3
f 14/18/22 15/14/23 30/80/24 29/79/25
s 4
f 13/13/26 15/92/27 14/91/28
f 13/13/26 14/91/28 11/10/29 12/102/30
f 8/4/31 6/15/32 15/92/27 10/8/33
f 10/8/33 15/92/27 13/13/26
f 8/4/31 7/104/34 6/15/32
s 6
f 32/20/35 33/21/36 17/120/37 16/121/38
f 36/24/39 19/25/40 18/26/41
f 33/21/36 34/27/42 20/119/43 17/120/37
s 8
f 23/85/44 22/86/45 16/23/46 17/22/47
s 6
f 34/27/42 35/31/48 24/117/49 20/119/43
f 35/31/48 36/24/39 18/26/41 24/117/49
s 8
f 25/82/50 23/85/44 17/22/47 20/28/51
s off
f 26/130/52 27/84/53 18/118/54 19/109/55
s 8
f 27/84/56 28/83/57 24/32/58 18/118/59
f 28/83/57 25/82/50 20/28/51 24/32/58
s 9
f 28/36/60 29/19/61 30/17/62
f 28/36/60 27/35/63 26/34/64 29/19/61
f 23/29/65 25/33/66 30/17/62 21/81/67
f 25/33/66 28/36/60 30/17/62
f 23/29/65 21/81/67 22/30/68
f 26/34/64 31/37/69 29/19/61
s 1
f 38/38/70 37/39/71 1/6/72 2/125/73
f 39/40/74 38/38/70 2/125/73 5/124/75
f 40/41/76 39/40/74 5/124/75 9/122/77
f 41/2/2 40/41/76 9/122/77 3/3/3
s 4
f 11/10/29 14/91/28 42/87/78
s 3
f 31/69/79 42/127/80 14/18/22 29/79/25
s 1
f 4/116/1 45/113/81 41/2/2
s 11
f 49/98/82 48/99/83 43/46/84 44/114/85
f 51/94/86 49/98/82 44/114/85 46/111/87
s off
f 11/132/88 52/96/89 45/43/90 4/1/91
s 11
f 52/96/92 53/95/93 50/112/94 45/43/95
f 53/95/93 51/94/86 46/111/87 50/112/94
s off
f 55/89/96 68/78/97 60/71/98 47/56/99
s 3
f 54/88/100 67/58/101 68/78/102 55/89/103
s 4
f 53/51/104 54/57/105 55/53/106
f 53/51/104 52/50/107 11/10/29 54/57/105
f 49/44/108 51/48/109 55/53/106 47/90/110
f 51/48/109 53/51/104 55/53/106
f 49/44/108 47/90/110 48/45/111
s 6
f 32/20/35 56/59/112 57/108/113 33/21/36
f 36/24/39 58/106/114 19/25/40
f 33/21/36 57/108/113 59/107/115 34/27/42
s 13
f 62/77/116 57/60/117 56/110/118 61/64/119
s 6
f 34/27/42 59/107/115 63/105/120 35/31/48
f 35/31/48 63/105/120 58/106/114 36/24/39
s 13
f 64/73/121 59/62/122 57/60/117 62/77/116
s off
f 26/76/123 19/129/124 58/61/125 65/67/126
s 13
f 65/67/127 58/61/128 63/65/129 66/74/130
f 66/74/130 63/65/129 59/62/122 64/73/121
s 9
f 66/68/131 68/54/132 67/70/133
f 66/68/131 67/70/133 26/34/64 65/75/134
f 62/63/135 60/55/136 68/54/132 64/66/137
f 64/66/137 68/54/132 66/68/131
f 62/63/135 61/72/138 60/55/136
f 26/34/64 67/70/133 31/37/69
s 1
f 38/38/70 44/47/139 43/115/140 37/39/71
f 39/40/74 46/49/141 44/47/139 38/38/70
f 40/41/76 50/52/142 46/49/141 39/40/74
f 41/2/2 45/113/81 50/52/142 40/41/76
s 4
f 11/10/29 42/87/78 54/57/105
s 3
f 31/128/79 67/58/101 54/88/100 42/42/80
